<mxfile host="app.diagrams.net" agent="Mozilla/5.0 (Macintosh; Intel Mac OS X 10_15_7) AppleWebKit/537.36 (KHTML, like Gecko) Chrome/130.0.0.0 Safari/537.36" version="28.0.7">
  <diagram name="第 1 页" id="cudZqlFE_aQ5dZGJZBB3">
    <mxGraphModel dx="976" dy="1346" grid="1" gridSize="10" guides="1" tooltips="1" connect="1" arrows="1" fold="1" page="1" pageScale="1" pageWidth="1169" pageHeight="827" math="0" shadow="0">
      <root>
        <mxCell id="0" />
        <mxCell id="1" parent="0" />
        <mxCell id="r-2nnv1M9J5xj9qOr7iy-51" value="" style="rounded=1;whiteSpace=wrap;html=1;strokeWidth=2;fillWeight=4;hachureGap=8;hachureAngle=45;fillColor=#1ba1e2;sketch=1;" parent="1" vertex="1">
          <mxGeometry x="225" y="902" width="605" height="20" as="geometry" />
        </mxCell>
        <mxCell id="r-2nnv1M9J5xj9qOr7iy-1" value="" style="shape=crossbar;whiteSpace=wrap;html=1;rounded=1;" parent="1" vertex="1">
          <mxGeometry x="250" y="190" width="120" height="20" as="geometry" />
        </mxCell>
        <mxCell id="r-2nnv1M9J5xj9qOr7iy-2" value="10:00AM" style="text;html=1;align=center;verticalAlign=middle;resizable=0;points=[];autosize=1;strokeColor=none;fillColor=none;" parent="1" vertex="1">
          <mxGeometry x="215" y="158" width="70" height="30" as="geometry" />
        </mxCell>
        <mxCell id="r-2nnv1M9J5xj9qOr7iy-3" value="10:01AM" style="text;html=1;align=center;verticalAlign=middle;resizable=0;points=[];autosize=1;strokeColor=none;fillColor=none;" parent="1" vertex="1">
          <mxGeometry x="340" y="158" width="70" height="30" as="geometry" />
        </mxCell>
        <mxCell id="r-2nnv1M9J5xj9qOr7iy-4" value="" style="shape=crossbar;whiteSpace=wrap;html=1;rounded=1;" parent="1" vertex="1">
          <mxGeometry x="370" y="190" width="120" height="20" as="geometry" />
        </mxCell>
        <mxCell id="r-2nnv1M9J5xj9qOr7iy-5" value="10:02AM" style="text;html=1;align=center;verticalAlign=middle;resizable=0;points=[];autosize=1;strokeColor=none;fillColor=none;" parent="1" vertex="1">
          <mxGeometry x="460" y="158" width="70" height="30" as="geometry" />
        </mxCell>
        <mxCell id="r-2nnv1M9J5xj9qOr7iy-6" value="" style="shape=crossbar;whiteSpace=wrap;html=1;rounded=1;" parent="1" vertex="1">
          <mxGeometry x="490" y="190" width="120" height="20" as="geometry" />
        </mxCell>
        <mxCell id="r-2nnv1M9J5xj9qOr7iy-7" value="10:03AM" style="text;html=1;align=center;verticalAlign=middle;resizable=0;points=[];autosize=1;strokeColor=none;fillColor=none;" parent="1" vertex="1">
          <mxGeometry x="575" y="158" width="70" height="30" as="geometry" />
        </mxCell>
        <mxCell id="r-2nnv1M9J5xj9qOr7iy-8" value="" style="shape=crossbar;whiteSpace=wrap;html=1;rounded=1;" parent="1" vertex="1">
          <mxGeometry x="610" y="190" width="120" height="20" as="geometry" />
        </mxCell>
        <mxCell id="r-2nnv1M9J5xj9qOr7iy-9" value="" style="shape=crossbar;whiteSpace=wrap;html=1;rounded=1;" parent="1" vertex="1">
          <mxGeometry x="730" y="190" width="120" height="20" as="geometry" />
        </mxCell>
        <mxCell id="r-2nnv1M9J5xj9qOr7iy-10" value="10:04AM" style="text;html=1;align=center;verticalAlign=middle;resizable=0;points=[];autosize=1;strokeColor=none;fillColor=none;" parent="1" vertex="1">
          <mxGeometry x="700" y="158" width="70" height="30" as="geometry" />
        </mxCell>
        <mxCell id="r-2nnv1M9J5xj9qOr7iy-11" value="10:05AM" style="text;html=1;align=center;verticalAlign=middle;resizable=0;points=[];autosize=1;strokeColor=none;fillColor=none;" parent="1" vertex="1">
          <mxGeometry x="820" y="158" width="70" height="30" as="geometry" />
        </mxCell>
        <mxCell id="r-2nnv1M9J5xj9qOr7iy-12" value="Customer 1&lt;div&gt;IN Queue at 10:00:15&lt;/div&gt;" style="shape=umlActor;verticalLabelPosition=bottom;verticalAlign=top;html=1;outlineConnect=0;fillColor=#dae8fc;strokeColor=#6c8ebf;" parent="1" vertex="1">
          <mxGeometry x="255" y="270" width="30" height="60" as="geometry" />
        </mxCell>
        <mxCell id="r-2nnv1M9J5xj9qOr7iy-16" style="edgeStyle=orthogonalEdgeStyle;rounded=0;orthogonalLoop=1;jettySize=auto;html=1;entryX=0.25;entryY=0.5;entryDx=0;entryDy=0;entryPerimeter=0;" parent="1" source="r-2nnv1M9J5xj9qOr7iy-12" target="r-2nnv1M9J5xj9qOr7iy-1" edge="1">
          <mxGeometry relative="1" as="geometry" />
        </mxCell>
        <mxCell id="r-2nnv1M9J5xj9qOr7iy-21" value="Customer 2&lt;div&gt;IN Queue at 10:00:45&lt;/div&gt;" style="shape=umlActor;verticalLabelPosition=bottom;verticalAlign=top;html=1;outlineConnect=0;fillColor=#d5e8d4;strokeColor=#82b366;" parent="1" vertex="1">
          <mxGeometry x="350" y="290" width="30" height="60" as="geometry" />
        </mxCell>
        <mxCell id="r-2nnv1M9J5xj9qOr7iy-22" style="edgeStyle=orthogonalEdgeStyle;rounded=0;orthogonalLoop=1;jettySize=auto;html=1;entryX=0.75;entryY=0.5;entryDx=0;entryDy=0;entryPerimeter=0;" parent="1" source="r-2nnv1M9J5xj9qOr7iy-21" target="r-2nnv1M9J5xj9qOr7iy-1" edge="1">
          <mxGeometry relative="1" as="geometry" />
        </mxCell>
        <mxCell id="r-2nnv1M9J5xj9qOr7iy-28" style="edgeStyle=orthogonalEdgeStyle;rounded=0;orthogonalLoop=1;jettySize=auto;html=1;" parent="1" source="r-2nnv1M9J5xj9qOr7iy-23" target="r-2nnv1M9J5xj9qOr7iy-1" edge="1">
          <mxGeometry relative="1" as="geometry" />
        </mxCell>
        <mxCell id="r-2nnv1M9J5xj9qOr7iy-23" value="2 customer in queue at 10:01AM and the average queue time is&lt;div&gt;(00:01:55+00:03:40)/2=00:02:48&lt;/div&gt;&lt;div&gt;&lt;br&gt;(Sum every in queue customer their queue time)/total customer number=this time average queue time&lt;/div&gt;" style="shape=note;whiteSpace=wrap;html=1;backgroundOutline=1;fontColor=#000000;darkOpacity=0.05;fillColor=#FFF9B2;strokeColor=none;fillStyle=solid;direction=west;gradientDirection=north;gradientColor=#FFF2A1;shadow=1;size=20;pointerEvents=1;" parent="1" vertex="1">
          <mxGeometry x="135" y="-20" width="610" height="120" as="geometry" />
        </mxCell>
        <mxCell id="r-2nnv1M9J5xj9qOr7iy-24" value="Customer 1&lt;div&gt;OUT Queue at 10:02:10&lt;/div&gt;" style="shape=umlActor;verticalLabelPosition=bottom;verticalAlign=top;html=1;outlineConnect=0;fillColor=#dae8fc;strokeColor=#6c8ebf;" parent="1" vertex="1">
          <mxGeometry x="500" y="270" width="30" height="60" as="geometry" />
        </mxCell>
        <mxCell id="r-2nnv1M9J5xj9qOr7iy-25" style="edgeStyle=orthogonalEdgeStyle;rounded=0;orthogonalLoop=1;jettySize=auto;html=1;entryX=0.142;entryY=0.45;entryDx=0;entryDy=0;entryPerimeter=0;" parent="1" source="r-2nnv1M9J5xj9qOr7iy-24" target="r-2nnv1M9J5xj9qOr7iy-6" edge="1">
          <mxGeometry relative="1" as="geometry" />
        </mxCell>
        <mxCell id="r-2nnv1M9J5xj9qOr7iy-26" value="Customer 2&lt;div&gt;&amp;nbsp;OUT Queue at 10:04:25&lt;/div&gt;" style="shape=umlActor;verticalLabelPosition=bottom;verticalAlign=top;html=1;outlineConnect=0;fillColor=#d5e8d4;strokeColor=#82b366;" parent="1" vertex="1">
          <mxGeometry x="810" y="290" width="30" height="60" as="geometry" />
        </mxCell>
        <mxCell id="r-2nnv1M9J5xj9qOr7iy-27" style="edgeStyle=orthogonalEdgeStyle;rounded=0;orthogonalLoop=1;jettySize=auto;html=1;entryX=0.25;entryY=0.5;entryDx=0;entryDy=0;entryPerimeter=0;" parent="1" source="r-2nnv1M9J5xj9qOr7iy-26" target="r-2nnv1M9J5xj9qOr7iy-9" edge="1">
          <mxGeometry relative="1" as="geometry" />
        </mxCell>
        <mxCell id="r-2nnv1M9J5xj9qOr7iy-30" value="" style="rounded=1;whiteSpace=wrap;html=1;strokeWidth=2;fillWeight=4;hachureGap=8;hachureAngle=45;fillColor=#1ba1e2;sketch=1;" parent="1" vertex="1">
          <mxGeometry x="250" y="190" width="120" height="20" as="geometry" />
        </mxCell>
        <mxCell id="r-2nnv1M9J5xj9qOr7iy-31" value="" style="shape=crossbar;whiteSpace=wrap;html=1;rounded=1;" parent="1" vertex="1">
          <mxGeometry x="225" y="902" width="120" height="20" as="geometry" />
        </mxCell>
        <mxCell id="r-2nnv1M9J5xj9qOr7iy-32" value="10:00AM" style="text;html=1;align=center;verticalAlign=middle;resizable=0;points=[];autosize=1;strokeColor=none;fillColor=none;" parent="1" vertex="1">
          <mxGeometry x="190" y="870" width="70" height="30" as="geometry" />
        </mxCell>
        <mxCell id="r-2nnv1M9J5xj9qOr7iy-33" value="10:01AM" style="text;html=1;align=center;verticalAlign=middle;resizable=0;points=[];autosize=1;strokeColor=none;fillColor=none;" parent="1" vertex="1">
          <mxGeometry x="315" y="870" width="70" height="30" as="geometry" />
        </mxCell>
        <mxCell id="r-2nnv1M9J5xj9qOr7iy-34" value="" style="shape=crossbar;whiteSpace=wrap;html=1;rounded=1;" parent="1" vertex="1">
          <mxGeometry x="345" y="902" width="120" height="20" as="geometry" />
        </mxCell>
        <mxCell id="r-2nnv1M9J5xj9qOr7iy-35" value="10:02AM" style="text;html=1;align=center;verticalAlign=middle;resizable=0;points=[];autosize=1;strokeColor=none;fillColor=none;" parent="1" vertex="1">
          <mxGeometry x="435" y="870" width="70" height="30" as="geometry" />
        </mxCell>
        <mxCell id="r-2nnv1M9J5xj9qOr7iy-36" value="" style="shape=crossbar;whiteSpace=wrap;html=1;rounded=1;" parent="1" vertex="1">
          <mxGeometry x="465" y="902" width="120" height="20" as="geometry" />
        </mxCell>
        <mxCell id="r-2nnv1M9J5xj9qOr7iy-37" value="10:03AM" style="text;html=1;align=center;verticalAlign=middle;resizable=0;points=[];autosize=1;strokeColor=none;fillColor=none;" parent="1" vertex="1">
          <mxGeometry x="550" y="870" width="70" height="30" as="geometry" />
        </mxCell>
        <mxCell id="r-2nnv1M9J5xj9qOr7iy-38" value="" style="shape=crossbar;whiteSpace=wrap;html=1;rounded=1;" parent="1" vertex="1">
          <mxGeometry x="585" y="902" width="120" height="20" as="geometry" />
        </mxCell>
        <mxCell id="r-2nnv1M9J5xj9qOr7iy-39" value="" style="shape=crossbar;whiteSpace=wrap;html=1;rounded=1;" parent="1" vertex="1">
          <mxGeometry x="705" y="902" width="120" height="20" as="geometry" />
        </mxCell>
        <mxCell id="r-2nnv1M9J5xj9qOr7iy-40" value="10:04AM" style="text;html=1;align=center;verticalAlign=middle;resizable=0;points=[];autosize=1;strokeColor=none;fillColor=none;" parent="1" vertex="1">
          <mxGeometry x="675" y="870" width="70" height="30" as="geometry" />
        </mxCell>
        <mxCell id="r-2nnv1M9J5xj9qOr7iy-41" value="10:05AM" style="text;html=1;align=center;verticalAlign=middle;resizable=0;points=[];autosize=1;strokeColor=none;fillColor=none;" parent="1" vertex="1">
          <mxGeometry x="795" y="870" width="70" height="30" as="geometry" />
        </mxCell>
        <mxCell id="r-2nnv1M9J5xj9qOr7iy-42" value="Customer 1&lt;div&gt;IN Queue at 10:00:15&lt;/div&gt;" style="shape=umlActor;verticalLabelPosition=bottom;verticalAlign=top;html=1;outlineConnect=0;fillColor=#dae8fc;strokeColor=#6c8ebf;" parent="1" vertex="1">
          <mxGeometry x="230" y="982" width="30" height="60" as="geometry" />
        </mxCell>
        <mxCell id="r-2nnv1M9J5xj9qOr7iy-43" style="edgeStyle=orthogonalEdgeStyle;rounded=0;orthogonalLoop=1;jettySize=auto;html=1;entryX=0.25;entryY=0.5;entryDx=0;entryDy=0;entryPerimeter=0;" parent="1" source="r-2nnv1M9J5xj9qOr7iy-42" target="r-2nnv1M9J5xj9qOr7iy-31" edge="1">
          <mxGeometry relative="1" as="geometry" />
        </mxCell>
        <mxCell id="r-2nnv1M9J5xj9qOr7iy-44" value="Customer 2&lt;div&gt;IN Queue at 10:00:45&lt;/div&gt;" style="shape=umlActor;verticalLabelPosition=bottom;verticalAlign=top;html=1;outlineConnect=0;fillColor=#d5e8d4;strokeColor=#82b366;" parent="1" vertex="1">
          <mxGeometry x="325" y="1002" width="30" height="60" as="geometry" />
        </mxCell>
        <mxCell id="r-2nnv1M9J5xj9qOr7iy-45" style="edgeStyle=orthogonalEdgeStyle;rounded=0;orthogonalLoop=1;jettySize=auto;html=1;entryX=0.75;entryY=0.5;entryDx=0;entryDy=0;entryPerimeter=0;" parent="1" source="r-2nnv1M9J5xj9qOr7iy-44" target="r-2nnv1M9J5xj9qOr7iy-31" edge="1">
          <mxGeometry relative="1" as="geometry" />
        </mxCell>
        <mxCell id="r-2nnv1M9J5xj9qOr7iy-47" value="Customer 1&lt;div&gt;OUT Queue at 10:01:50&lt;/div&gt;" style="shape=umlActor;verticalLabelPosition=bottom;verticalAlign=top;html=1;outlineConnect=0;fillColor=#dae8fc;strokeColor=#6c8ebf;" parent="1" vertex="1">
          <mxGeometry x="475" y="982" width="30" height="60" as="geometry" />
        </mxCell>
        <mxCell id="r-2nnv1M9J5xj9qOr7iy-48" style="edgeStyle=orthogonalEdgeStyle;rounded=0;orthogonalLoop=1;jettySize=auto;html=1;entryX=0.808;entryY=0.45;entryDx=0;entryDy=0;entryPerimeter=0;" parent="1" source="r-2nnv1M9J5xj9qOr7iy-47" target="r-2nnv1M9J5xj9qOr7iy-34" edge="1">
          <mxGeometry relative="1" as="geometry" />
        </mxCell>
        <mxCell id="r-2nnv1M9J5xj9qOr7iy-49" value="Customer 2&lt;div&gt;&amp;nbsp;OUT Queue at 10:04:25&lt;/div&gt;" style="shape=umlActor;verticalLabelPosition=bottom;verticalAlign=top;html=1;outlineConnect=0;fillColor=#d5e8d4;strokeColor=#82b366;" parent="1" vertex="1">
          <mxGeometry x="785" y="1002" width="30" height="60" as="geometry" />
        </mxCell>
        <mxCell id="r-2nnv1M9J5xj9qOr7iy-50" style="edgeStyle=orthogonalEdgeStyle;rounded=0;orthogonalLoop=1;jettySize=auto;html=1;entryX=0.25;entryY=0.5;entryDx=0;entryDy=0;entryPerimeter=0;" parent="1" source="r-2nnv1M9J5xj9qOr7iy-49" target="r-2nnv1M9J5xj9qOr7iy-39" edge="1">
          <mxGeometry relative="1" as="geometry" />
        </mxCell>
        <mxCell id="r-2nnv1M9J5xj9qOr7iy-52" value="Customer3&lt;div&gt;IN Queue at 10:01:23&lt;/div&gt;" style="shape=umlActor;verticalLabelPosition=bottom;verticalAlign=top;html=1;outlineConnect=0;fillColor=#fff2cc;strokeColor=#d6b656;" parent="1" vertex="1">
          <mxGeometry x="390" y="1112" width="30" height="60" as="geometry" />
        </mxCell>
        <mxCell id="r-2nnv1M9J5xj9qOr7iy-53" value="Customer 4&lt;div&gt;IN Queue at 10:03:17&lt;/div&gt;" style="shape=umlActor;verticalLabelPosition=bottom;verticalAlign=top;html=1;outlineConnect=0;fillColor=#e1d5e7;strokeColor=#9673a6;" parent="1" vertex="1">
          <mxGeometry x="545" y="942" width="30" height="60" as="geometry" />
        </mxCell>
        <mxCell id="r-2nnv1M9J5xj9qOr7iy-54" value="Customer 4&lt;div&gt;Out Queue at 10:05:30&lt;/div&gt;" style="shape=umlActor;verticalLabelPosition=bottom;verticalAlign=top;html=1;outlineConnect=0;fillColor=#e1d5e7;strokeColor=#9673a6;" parent="1" vertex="1">
          <mxGeometry x="950" y="962" width="30" height="60" as="geometry" />
        </mxCell>
        <mxCell id="r-2nnv1M9J5xj9qOr7iy-55" value="Customer 3&lt;div&gt;OUT Queue at 10:03:22&lt;/div&gt;" style="shape=umlActor;verticalLabelPosition=bottom;verticalAlign=top;html=1;outlineConnect=0;fillColor=#fff2cc;strokeColor=#d6b656;" parent="1" vertex="1">
          <mxGeometry x="610" y="1022" width="30" height="60" as="geometry" />
        </mxCell>
        <mxCell id="r-2nnv1M9J5xj9qOr7iy-57" style="edgeStyle=orthogonalEdgeStyle;rounded=0;orthogonalLoop=1;jettySize=auto;html=1;entryX=0.342;entryY=0.6;entryDx=0;entryDy=0;entryPerimeter=0;" parent="1" source="r-2nnv1M9J5xj9qOr7iy-52" target="r-2nnv1M9J5xj9qOr7iy-34" edge="1">
          <mxGeometry relative="1" as="geometry" />
        </mxCell>
        <mxCell id="r-2nnv1M9J5xj9qOr7iy-58" style="edgeStyle=orthogonalEdgeStyle;rounded=0;orthogonalLoop=1;jettySize=auto;html=1;entryX=0.183;entryY=0.5;entryDx=0;entryDy=0;entryPerimeter=0;" parent="1" source="r-2nnv1M9J5xj9qOr7iy-53" target="r-2nnv1M9J5xj9qOr7iy-38" edge="1">
          <mxGeometry relative="1" as="geometry" />
        </mxCell>
        <mxCell id="r-2nnv1M9J5xj9qOr7iy-59" style="edgeStyle=orthogonalEdgeStyle;rounded=0;orthogonalLoop=1;jettySize=auto;html=1;entryX=0.35;entryY=0.6;entryDx=0;entryDy=0;entryPerimeter=0;" parent="1" source="r-2nnv1M9J5xj9qOr7iy-55" target="r-2nnv1M9J5xj9qOr7iy-38" edge="1">
          <mxGeometry relative="1" as="geometry" />
        </mxCell>
        <mxCell id="r-2nnv1M9J5xj9qOr7iy-60" style="edgeStyle=orthogonalEdgeStyle;rounded=0;orthogonalLoop=1;jettySize=auto;html=1;entryX=0.5;entryY=0.5;entryDx=0;entryDy=0;entryPerimeter=0;" parent="1" source="r-2nnv1M9J5xj9qOr7iy-54" target="r-2nnv1M9J5xj9qOr7iy-62" edge="1">
          <mxGeometry relative="1" as="geometry">
            <mxPoint x="890" y="920" as="targetPoint" />
          </mxGeometry>
        </mxCell>
        <mxCell id="r-2nnv1M9J5xj9qOr7iy-61" value="" style="shape=image;verticalLabelPosition=bottom;labelBackgroundColor=default;verticalAlign=top;aspect=fixed;imageAspect=0;image=data:image/png,iVBORw0KGgoAAAANSUhEUgAAAmMAAAC1CAIAAACcUm8xAAAgAElEQVR4Ae2dUZbqIAyGXZcLcj2uxs3My93J3AOUkIRibQjq5PzzYqEJ4f+Cja22c/m1/v3798/qGsEvqvyoumbWHJgoegCigARoRs2pl66LOcdeMzBP4LOOUeVH1TWzWsBE0QMQBSRAM2pOvXShUhoXuVcCjOGXuUXVNQMMTBQ9AFFAAjSj5tRLFyqlcZF7JcAYfplbVF0zwMBE0QMQBSRAM2pOvXShUhoXuVcCjOGXuUXVNQMMTBQ9AFFAAjSj5tRLFyqlcZF7JcAYfplbVF0zwMBE0QMQBSRAM2pOvXShUhoXuVcCjOGXuUXVNQMMTBQ9AFFAAjSj5tRLFyqlcZF7JcAYfplbVF0zwMBE0QMQBSRAM2pOvXShUhoXuVcCjOGXuUXVNQMMTBQ9AFFAAjSj5tRLFyqlcZF7JcAYfplbVF0zwMBE0QMQBSRAM2pOvXShUhoXuVcCjOGXuUXVNQMMTBQ9AFFAAjSj5tRLFyqlcZF7JcAYfplbVF0zwMBE0QMQBSRAM2pOvXShUhoXuVcCjOGXuUXVNQMMTBQ9AFFAAjSj5tRLFyqlcZF7JcAYfplbVF0zwMBE0QMQBSRAM2pOvXShUhoXuVcCjOGXuUXVNQMMTBQ9AFFAAjSj5tRL1+Uf/kAABEAABEAABMYEcE5p/Djo9VHFGH6ZW1RdM8DARNEDEAUkQDNqTr10oVIaF7lXAozhl7lF1TUDDEwUPQBRQAI0o+bUSxcqpXGReyXAGH6ZW1RdM8DARNEDEAUkQDNqTr10oVIaF7lXAozhl7lF1TUDDEwUPQBRQAI0o+bUSxcqpXGReyXAGH6ZW1RdM8DARNEDEAUkQDNqTr10oVIaF7lXAozhl7lF1TUDDEwUPQBRQAI0o+bUSxcqpXGReyXAGH6ZW1RdM8DARNEDEAUkQDNqTr10oVIaF7lXAozhl7lF1TUDDEwUPQBRQAI0o+bUSxcqpXGReyXAGH6ZW1RdM8DARNEDEAUkQDNqTr10oVIaF7lXAozhl7lF1TUDDEwUPQBRQAI0o+bUSxcqpXGReyXAGH6ZW1RdM8DARNEDEAUkQDNqTr10oVIaF7lXAozhl7lF1TUDDEwUPQBRQAI0o+bUSxcqpXGReyXAGH6ZW1RdM8DARNEDEAUkQDNqTr10oVIaF7lXAozhl7lF1TUDDEwUPQBRQAI0o+bUSxcqpXGReyXAGH6ZW1RdM8DARNEDEAUkQDNqTr10oVIaF7lXAozhl7lF1TUDDEwUPQBRQAI0o+bUSxcqpXGReyXAGH6ZW1RdM8DARNEDEAUkQDNqTr10oVIaF7lXAozhl7lF1TUDDEwUPQBRQAI0o+bUS9flH/5AAARAAARAAATGBHBOafw46PVRxRh+mVtUXTPAwETRAxAFJEAzak69dKFSGhe5VwKM4Ze5RdU1AwxMFD0AUUACNKPm1EsXKqVxkXslwBh+mVtUXTPAwETRAxAFJEAzak69dKFSGhe5VwKM4Ze5RdU1AwxMFD0AUUACNKPm1EsXKqVxkXslwBh+mVtUXTPAwETRAxAFJEAzak69dKFSGhc5T8DP/Xq9/5SBHrfLhRo09uN2uT2oJTd+7rfrpf5db3UgafS2FteVg66Y3ooxFxJ6C5P5+T9bZPOj8xE6IHwntv8kgag59dKFSmlc1jwBqlJer61wbqMPD2KlsD62Mvv787hfL+OiapzrGTeu6/fXOr3Hrf+0UGdhHbP6v//Vh8mKeT/jvCLeNqYEsjAQhn4bgag59dKFSmlcijwBqlLeHo+bqpWDSvm47Zx//tyvH6yVXJd5ehyI4mseU43zzqYLkxUTfsJ5RTgakwOhTmz8aQJRc+qlC5XSuLx5AvgBa6uJqlbuV8r93nwmV67VSgMe5vfnQddsr7d6TnrWfkc70yVHa7bUTxt5X51eOmesf90lZ+ny8pglwCLJbRaDrXkmK+bfcSa2JRP1Ene5oE/r5cpzQr2XS1tFAwqsmwFhvdj8ywSi5tRLFyqlcXXzBNQakYaiw9Xjxo5J1MujcTfe/0s7pBt1pyjX632rj+mK7RbqrL2IWhpNFwsn7WjHMBxZSMffpmy4YzjmOsl6Ll3bhcmK+UvOhC51X2/b56d8ieJ+377/zqWx1srBlDr9XUcD0u1Cxx8lEDWnXrpQKY0LmyeAH7DocMWKpths8bhb6/1l9YQNxrtToRQ//Kl29bWM1sYf2YuopdF0NXdlRjtG4V4oiGrI5jEacyThrL0O/Erbg8mS+VMmsgpCkYojWyDygnfzGU3pGEkDcmwLi79BIGpOvXShUhrXMU9AO/iomkjHLtrg0bgb7z8sG+lIqP/ykVGGofGH9iJqaTRd5K6taMcgHCv1Q9fhjsGYQwln7XXgV9oOTNbMnzKRVRAK2d0uc2Qr2jmc0jGSBuTYFhZ/g0DUnHrpQqU0rmOeADr48Kuvedy0J13rooOYiLbfy6ylAYWhDTHabvB86jm01/6/v79Ml4zebKmfNvI+FoVtNre8JV3aTuqnDTnmcMSz9i3k61sOTNbMX45KKGS3Wny0kzZeB1EtGZDahdc/TiBqTr10oVIaFzhPAD/m0OFqGzftSz+G3f05q7wu1jyqMR84F9DtmtpguHYymodqo4/sd7RzXW0AZphORbYvukbTU/NgzlwE635hzJGE0RxG9izqy5seTEbzmZp/51wSI7tHlVL1v0xDfpw64wbbLybAF/kXT/P01Lx0oVKeRl8ceAL4kak/Iqa96RcWu08eyDcX0m9Xu/spU60qe38e9/uNvp5MbuSVfqWxjX7WvhfPdeW6VieQTPXtnqNwrPL1Eb5Ocj9F1ePCZEXKJGdaenw9jq80lOzurSIlv29KIP1+9Pw9AlFz6qULldK4pnkC+JGJDlds3HRAq+dhrHvbrL/mz988Xm/1J61lL/2MP9VC/hMM2pF+399+3kPdL9p30+G68s40Yv1aNNX7+pAE2rnNW0wvK77sPa2ouKnHEolBz0o4a99JPuzomXzL/AVnWnp8PT6rlOmjD7vXqK2iIyIdkCMH7P96AlFz6qULldK4hL0SQOHL+YGoQ7TvjRvuup7M/UskP5lh2TVi8lfmfyjwrMEIyNlxYP89BKLm1EsXKqVxrXolgIWnD/j7F2qZ5cLNBbqezPYrJD+ZX9k1ZvI35n8o8KzBGMjZkWD/LQSi5tRL1+Uf/kAABEAABEAABMYEcE5p/Ezn9VHFGH6ZW1RdM8DARNEDEAUkQDNqTr10oVIaF7lXAozhl7lF1TUDDEwUPQBRQAI0o+bUSxcqpXGReyXAGH6ZW1RdM8DARNEDEAUkQDNqTr10oVIaF7lXAozhl7lF1TUDDEwUPQBRQAI0o+bUSxcqpXGReyXAGH6ZW1RdM8DARNEDEAUkQDNqTr10+VXKn0e7Hbu7Q/1PraT80/+jOzWsCdgdnG42EE8RYNBGBqN+5lruLpdy6g3r9THrbK9VF494dvsrmPDb8PmzHL7m4W2HuX5isEt4S9NoMYz6vwbI2WUG+2cEPvHGfzYfr31eurwqZX5EGT1e5qc8uuukWP4ImpOububpkHK93/cf08qjWBIwGJzdwM7+1yQLNjIY9TfXcURWHJv5Bw6C4xnWx/WdY9IesFeevcf++9Sm83xES64FVIfGYa6HBgO9NKefe30WInXljVH/BxaJnBhaKwh8wyL/Zl0+lTIdntSzsPL77NQTZ9QzuFZQOxzz55GrPT0XbOxgWFiDwVUw1eyeRtYebK0sVTNNfRCxDdHrM+jqB3m9ZzBDpUU1VzBRIUTzzUz26In55Ce2qo86Q4MB4RZEedKOUT8qJSGKtPEFi3wJTi9dLpXyyXtK7mrFMH3QLdf+yqNE00lo/aNjAH8iKnviaBml7ixXymg88fmYetPDUevDRYt7jq/Le02VnHXtFa/2BKjBG5NtfLW//8ccm8GhI81XjygeIEtWZcOuSw10qqlmeCjt0GCLrsZlc1J7ng74GSZsssM1QDZP55+slF5yTHv23wajflRKBi/O5ucX+RqWXro8KmX3LmWS5RuULNtJaCpmpTTSzuKeriZdd6/nJsPrbat8+aLT/b49JDyXxlpp84XUrT6yS3jCnU2VbcpZsx1t054ANbhq5n+DnBXUHfWVYm+XxUb9/UGxs0zM6Vtl8dmC/39KCrh+Q81QNV9nomZKa+uQyTBiGtGeazUfc3M4vbqjvlIEfe1UG7T2aDGM+r8CCOnEhhOBzy9yJyFqGC9dn6uUtZ6RMFkp2zu5GlB1LTWUruxSfzZso+jPxHVE5V6H56/VlPepbXsC1OCq2apCDTgyGPVXv/aqLTOBeo6tcNh1tXjnt9QMVfN1JjxyWwm8t26rEKopI36GSZ1pen06PZtBHX60GEb9ye/zQOrs8epFIGpOvXR9qFKmy0npiij/H1PiyCYa22Kohwu1r3YXK9qZI9QLuttrvsxEFuM1JofctbMnQA2umvIYnUKPDEb9/XQ7S2kigNh1yUHPtdQMVfN1JhRVaKJetqFCqKaM+BkmbLLDNUA2T+efrDoDcpUbI3Ci//NA5KTRmicQNadeujwqZXoX7n/Vod+g4u1WfnFyo39yLHaKxrYM6ptd7avdxYp20oZeRMMdzVAO2frZlj0BavBuOvpceGQw6meT3DZVxM6AR7Tr6oY90aFmeCjtuUG3d2cmZyJ+hgmfdKeIpywZHhoovXxwua1Hrnt5/+eB1Fnh1YtA1Jx66XKplHulcvvtq3wH75bU+h7uTNX1WXKWhurTcttZx9VLqVnoPdQeuZLBzAUoPbhqq2Z/OkAGtFGmpZpsrnpP+/ouGwkgXguLhX9hs5+h+M/Xerf+BMbXgFAzDq2HVG3R/AwTMXcxn07+k0VSR1ED1O40lPiimvCN+pPnFwBpArDlQiBqTr10+VTK/Nbd//1Nqm/lK7Gfx/1+K7+zyz8WKF80plsvywlpulzKimP+nmT4ix52T4o8BtA7vcypfhuX778vozOL0RKTQ+5a2RPQDV6EZxziF0kUd2Qw6ifHbaOLmJmX3zqlnzpx7HZdOuqZdjfDQ2kDgxeSW+Z1JuJnmEh+A73N6MCg00ueo8Uw6kelJHSRNr5hka/g6aXLq1Lme/fqjR/pSTP1nozyiJj0PWH66EqXcOgmEfZUmvRez4a1DNYbQZJz+xmsvtIkjwHiUCnuEmmjXkfXiusMtq81LxdeQ2QazyfgyeBtnu1mFn6e1CDWjx3bZJ47PovIfvpaweQxz+uSXM61ns2QlsgJJv1428cwWiS9BX0624WZ9LyXyYjg7vRIV/4uo74BGbGRXuE4WAzt/feVDy0agUK/hcB3LHLLzJ/7eOnyq5TP5xtur1cCvg1MVF0znMFE0QMQBSRAM2pOvXShUhoXuVcCjOGXuUXVNQMMTBQ9AFFAAjSj5tRL1+Uf/kAABEAABEAABMYEcE5p/Djo9VHFGH6ZW1RdM8DARNEDEAUkQDNqTr10oVIaF7lXAozhl7lF1TUDDEwUPQBRQAI0o+bUSxcqpXGReyXAGH6ZW1RdM8DARNEDEAUkQDNqTr10oVIaF7lXAozhl7lF1TUDDEwUPQBRQAI0o+bUSxcqpXGReyXAGH6ZW1RdM8DARNEDEAUkQDNqTr10+VXKnwfdv3y5sluf/9gi4vd3i1vylQ5rAvL4dLP7Nuhh0JHBqF9Ntj6vqHbr29HZfKy66tCWV18mdQbpX54yYbU7PSOj3aHfUvxlTNp069b+tOte9eSBpis9E3ZPL3Osm5rYMOInFkmdJF7XEIiaUy9dXpUyvcnaY3TSI+r2j1LPskwP8HlmtHZfeoJX/ceX6TFvo4f52J7bko481/v9ptCkYzQLKh7DmeWODEb9HaMUlz+zTv/zQubgtbDYkE83vZnUYFpy7c/PKGa0KcVfxITmyjYOcz0wSM+sqo90fP621MQGA6Y5vXuRMA7YXEQgak69dPlUyvyISPqHkTmV2xPST6RVPIfuhJ+jKX/EV//UaRHIkICfR37Gnwoinlq3G1Q5UJM2ysRUs802p0LsFY1mmLYMuuQA51reTLboveQ6LSW9NdtWNaXXNzOhuGxDzU41+2VTDdSbSjVZgI5YHWGzEc0vAMKmjk0PAlFz6qXLpVKKd5HMmtzV3qj8wk56RGw6Ca1/dMmsXTbKT42tpbiMUneWR1LSeOKMjHq5f3HPV+DGp4xZhZy8FGZPgBq1MdkCqP36MbeZVUJ06EjjJZli1Cdn73Zdks+5lpjdC9IOtBd9atDdGTWbr2PC53ug9wViZbRunBqkI9ZZNlJv/zhVJ4nXhQQ+88ZfKGgb2kuXR6Xs3lRMPn9/sfdzOwlNxayURjVMuvizfz03GV5v9QpaunR5v9/KFzO5NNZKm691bk9qT/8yg8UhdzbVbpNm1u2ZOveSSGQJS5Hyp3t2lqDsyWDUL0esBUBY5//l0r68ejCBXguLDfnCppgdfRZojq8yyR57klWAOjJL8dcxqXNMr930TwGpI6U3TntzsO8AdogNI6bBPrNIqgy8riAQNadeuj5XKetblrIuK2X3Tk1Hi3IOWGpoPcNs/XmkNkp9+9cAdUTlXner1zaO2rE17Qmo89gGUk0qhBR2ZDDqJ0dWdeWxNhOgL6/k17F2XTzu2W2lRTVfZzKUvDchkeLvY8KnPAOkMEkXbNR/BKkBatUVi+RpxM8skjpfvK4gEDWnXro+VCnTiVN657L/ziWvJoqj2LYw6ptX7avdxYp25gj1gu72mistWYzX2wsm9gTI+Y5PF+r0lD2VjVF/9cunInR9ubNuZkKtXVcb8PyWmp1qkmQaeGzAPh91RuReigex4f3b9hcw4bPqpLTqVswODZIZu7DCBt8n9nTAzywSNmdsuhOImlMvXR6VUp3ViRzKN5w4/pS3bvpV5s7VV22ZBq1jqX21u8SlnbQh5nN8jJQVWztT254AOd8+HDty5WidkM1g1E9TFAOpqGSUNrihXZcY8mRDze5Q2siAK6H10s+lc+9N+EifYcLn1E2YTy8ZHhpsoz23Y2l4avh5IBwOtj0IRM2ply6XSrlXKvOH3h/1DqYLqDy19e0p35u1t1mSszRUB8S2sx+hjNUs2ti09XQnWU19VaPnpdqqyT4hbOHJgDbKDtVMXPq//KGEfTuXXIVmr4XFWR1v78ydX53Xu9unpm3ozWAsmU1ByKX+72NCU0sbioBqjg20oRY/JqY8RfMzi0QAQcOZQNSceunyqZT5nbz/+5tU38pXYj+P+/12y5e88q8nyheN6R6vchksXS5lh8f8xVG+rSItCX4rmHq3i/cwP+yno0D9Ni7fbr5z7iqXmxpZ7pQtewLkfEulqvMUv0iigIVM5iUMRv3kyDZE1My8/NYpXZHj2O26WLDTm2J2yftQ2qFBV13KpIYp/jomEuKh3oGBfBOk38LxhxLIGLIeDwZMLp9ZJGqyaLoSiJpTL11elTJ/CVJ/TZl+OrD95pQ9ESVdZKWLRvSYFPYzg/TWTH/0Xq43gqS+9jNYXgzTWpFHWXEkzHWlnFi1XzMIC7HY6gTYqRjNRRiaDhb96PS5oM2T7hKXunYNygeIwqx+HOmBbBOXlMbPbfFaWJrXfnsFE4rEJdftPuDecmuLJQ/2XiY0f7WxuwaqrmS7a8C72XtNvWu2UHy08YColCozIZrfscj9UXrp8quU/hq/ekSvBHybyKi6ZjiDiaIHIApIgGbUnHrpQqU0LnKvBBjDL3OLqmsGGJgoegCigARoRs2pl67LP/yBAAiAAAiAAAiMCeCc0vhx0OujijH8MreoumaAgYmiByAKSIBm1Jx66UKlNC5yrwQYwy9zi6prBhiYKHoAooAEaEbNqZcuVErjIvdKgDH8MreoumaAgYmiByAKSIBm1Jx66UKlNC5yrwQYwy9zi6prBhiYKHoAooAEaEbNqZcuVErjIvdKgDH8MreoumaAgYmiByAKSIBm1Jx66UKlNC5yrwQYwy9zi6prBhiYKHoAooAEaEbNqZcuVErjIvdKgDH8MreoumaAgYmiByAKSIBm1Jx66UKlNC5yrwQYwy9zi6prBhiYKHoAooAEaEbNqZcuVErjIvdKgDH8MreoumaAgYmiByAKSIBm1Jx66UKlNC5yrwQYwy9zi6prBhiYKHoAooAEaEbNqZcuVErjIvdKgDH8MreoumaAgYmiByAKSIBm1Jx66UKlNC5yrwQYwy9zi6prBhiYKHoAooAEaEbNqZcuVErjIvdKgDH8MreoumaAgYmiByAKSIBm1Jx66UKlNC5yrwQYwy9zi6prBhiYKHoAooAEaEbNqZcuVErjIvdKgDH8MreoumaAgYmiByAKSIBm1Jx66UKlNC5yrwQYwy9zi6prBhiYKHoAooAEaEbNqZcuVErjIvdKgDH8MreoumaAgYmiByAKSIBm1Jx66UKlNC5yrwQYwy9zi6prBhiYKHoAooAEaEbNqZeuyz/8gQAIgAAIgAAIjAngnNL4cdDro4ox/DK3qLpmgIGJogcgCkiAZtSceulCpTQucq8EGMMvc4uqawYYmCh6AKKABGhGzamXLlRK4yL3SoAx/DK3qLpmgIGJogcgCkiAZtSceulCpTQucq8EGMMvc4uqawYYmCh6AKKABGhGzamXLlRK4yL3SoAx/DK3qLpmgIGJogcgCkiAZtSceulCpTQucq8EGMMvc4uqawYYmCh6FcjP/XrZ+bs9lL2p+bhdRgP93G8t8PV2/zEFmHN6ov3JzOdirvSuOXWJ8fOoCRpkZ99AM93Jf0s9H/mJo5cuVErjyvBKgDH8MreoumaAgYmi1wM5Vxwet+txdRsN+bhdLtf7o1bHn0cq1zvHVDXndc3RRNdFXDFyn1NzlFS3biVBKTvXLjkjg597b8tn8ZMHK5n/SeugjvzE0UsXKiXPxIltrwScCPkW06i6ZuCBiaLXAzlVLdIBz1opH7dL71uOvGqSb2ue0v62WZ0N1Of07AjVXvFQzd/fX9XTmm2rjiVe1bphzSeOXrpQKUUuXm94JeD1iO+xjKprhh6YKHo9kN1DVbtSdrlct5OMdJikv+2UoF2Ku7BLartD7nbyg680YAfT318Rpp6TnrVXJFJTDsE7SviKoWijWYjTJ+plpHZCLezqc2oMJpjv8RkbvHStgabFxnni6KULlZLAn9vwSsC5qOuto+qaIQcmil4PpKsWv+k8r10k1dfK2Hlh2lXLaL6UutXPfsjfNCjzZLOiHdKLulM9u9J02DXBs/YsZt2UQ+hKeb3VC5HpmuT9vn2rmktjvXg4mFsN8JbXPqfGsB2Oemm07qivNH41SDm60VfQ7ZNE55A8U2orv5FjsvPShUpJ+Tq34ZWAc1HXW0fVNUMOTBS9Hkh3MOs60qnXVuVY/VID81rYj8D3KkcaUnpRdzqWigu+1a6+lvGO7VXc1JRD8I7yaaF+o8oIJDdTrJ3wTl19To0DdzioEG4DDg0yLvrQlD9pEbs2mWR1SafeLZ/PHL10oVK2FJza8krAqaBvMI6qawYdmCh6PRB99GtloLmSjd6Zzq/ab1lrPSXzNgKrLqwzbdKQ0ou6t8MrXffNx9p0qD1rr+KmphyCd1D44iUNaedwbjux1nX1OTXGkipLbujkL415aLAFJkC7E2HXBfR+4eilC5VSY36x7ZWAF8O9zSyqrhmAYKLo9UD00U8crDZvspE7828Y7z/b2UPbR+Y8+G4nP/pKAxqNNvhgafusvfbvhuAdKqpDrJ3wTl19To0DK9EJsTydPzSogbVj7a+v3UB1B3f00oVKWemefPVKwMmwy82j6poBByaKXg9EFgFeLch1cPVVHe6aVTdkHqntp4HzGWW9YUAO16z3R2Mno2r0kT2LWjc7U+qQkxlVZdVfh33za59T6wRIfhlANfu1QQbpa0p2K66ipz/VsNw9c/TShUppXA9eCTCGX+YWVdcMMDBR9HogdLQjy/zdEd32qH/RUwtbrXJ0j9w13SyZW/2QZex8P2X9Niv9olXeT5mKY9n787jfb3Q+U26/q2eu7dh61p4E0kY3UepQx3rqz65s52huFOING31OzUFT6uvPmNIjCHj5q9J3DfIHm3YjZucoOd2v9POuJ45eulApjevBKwHG8MvcouqaAQYmil4PRBaBzbzeHpF+f0G/O0376jdzpSY2s+vtke5Uf14ps399BEz5aUe95SPHpRsu0gkKvw5HO9TPQerzZF60Vyz6U512jsiKYfKSkMTOwdy6WOs6+pxOxGpy6O4gKX/XQGSW/WKHcWt+4ic9aUnVJcEckwIvXaiUxvXglQBj+GVuUXXNAAMTRe9LgLBzFzVBNE8T+JKcnp73kYOXLlTKI9KD/V4JGAz/se6oumaAgomi9zVA6BSju8CnZozmEYGvyenRRE/u99J1+Yc/EAABEAABEACBMQGcU578iFLNvT6q1PG+5TWqrhm+YKLoAYgCEqAZNadeulApjYvcKwHG8MvcouqaAQYmih6AKCABmlFz6qULldK4yL0SYAy/zC2qrhlgYKLoAYgCEqAZNadeulApjYvcKwHG8MvcouqaAQYmih6AKCABmlFz6qULldK4yL0SYAy/zC2qrhlgYKLoAYgCEqAZNadeulApjYvcKwHG8MvcouqaAQYmit4ekPzonPbvHZTHX2m2G9jVv6v4qAB26/2yeezl1ByM7t5RzwegAUcGo35yrBvlcT21hScPNBLftuW6sL5IXFRdM4jBRNHbAZIO5rf0jyaV6V9qlmJPD/zRz8l7qxT+cKG3BN7JqTUueyLE/n/8GBm0JwuWhxTKJ6uz6aR/PsOfkpefZlefiMj/cSWe0cOofWbTcWF9RsAgalRdA7kvdYOJwtQDKWc97zj3UVPxa7KjbRu0HNNb+11b4lF3bwna59QaVq0C1eye6tce8qcsVbNNJ//DS76Xb+vxvXTh6mtLwKktryR1d5cAAAheSURBVAScCvoG46i6ZtCBiaLXAamHqvqa7bujfetoF9nq48zL02Cv97JneyBsfSKreFBr+cfAdZd4yqcY9t4eIZsGrw5pLDptZLrE1Pf6pUHTMhr8rH2Lmc5t618+SaehStR6ibhoJ2XyH3Ec6W3hylaXU23waluQSU40+22EQ4PNTvvVCZTTbb6Xb+eA7GTUSxcqZeV/8tUrASfDLjePqmsGHJgoegoIO/GSx6xBK107q/9lhF2eS0fQ643KWPr3I7WRL4RuV3ZTpbxVsxS6HhbLV1ftv4Wkbxq3L04HEZms7vBd99EOKYa6UyXYlXPWvgbMr2x4XmtSNyHK2O/3W9GYC2a9+D2YkgihGiqnau+JptRdPgGJej80kEHEv3upwjLtLFiMknG1f0JS054G9NKFSinT83LLKwEvB3yTYVRdM/jARNGTQFih1CcQ/HBG2/oruLqDVz0VMP/7ke34J8Llf0tSDqN1GHJtl1NHEcmUj8860ybVLDk+dYt/V5Icql19LeMd24u4zZwPmdWyMtAUJqvm84JeES01ZE673a93SN2sUtYhDg2ElupVXssFhbStRqEza33JwEsXKqXMxMstrwS8HPBNhlF1zeADE0VPAGkH6Gwlj2CtRacIqdLpv3z0VwOVK6bMtlVKVizoiNl5t8oxjMhk9e7bTtrRpKQ91D0c/Kw9mwwbPvfSUBS1GFN/btLO4ZRECNUQOVX7TjXlpCyVkoR0cdlHAB4mOdTLD/k6O1sgXrpQKbtsvNbhlYDXor3PKqquGYJgouhxIAeH5XpAq6+6CLCR1QEyX0y9/9SrqfR/K3uzfE6pulUxY4dOFpFvtgnyXnbuIg0oHG1IN+aYd5AZbWh70ZZWFFp206eE4ko7aUMMedDgOT0wfb67i87KW/Z8btDtbdHEQMQkr6h2dZYnPrl66UKlbIk4teWVgFNB32AcVdcMOjBR9BiQVCjFYSqXCFaYyhGNHdfU8b0NLY+RspWctkH7HS9cfdVzbFFpq0WgrnwQrq4ybrPm0phnO+vMncf23Ld3LhrlHBTJtnM0JRFCNVhO1Z6zTRVdNfsLp8ygSdgJyn/oRBclEhftJdpeulApd1LySpdXAl6J9U6bqLpmGIKJoteAtALATGRnOhDebqx2pgM8/VYnXyzbKwOlBNd75NI/tD+olGrYewpaow4isjmnzWTVruKVW/pqnSy7t70/j/u9SRoNnjCUa4Kv2fPZyA8gVEtEDRiethYl4nJkIcwj6O2WU73ndJulTvzOiAYaGCh1ZL67QUy2xHG5dakkRy9dqJS7aTju9ErAcaT3WkTVNUMRTBQ9AiJrIlnJQ14uQPLpPe33F+whLtIrnSqk+pj+rrdHu+VDmfEjpvD4EYa7EWnCtNFGKM/oEfeT0Bjpfgx+KZB2iNtZ2p0pL9rTLMoVxCI9gSONQhLrz55i52BKPITcppzKblurRWefPEhFkkc3sTSDVD/VX/mkwx1pPrKzjSc+7KBSEq+PbbgurI+p6ANH1dUrfb0HTBSrPwCE31eiZv9Ck530vGAdwuQP5NTE2UsXzilN+P1O6o3hl7l5LaxlE/zAwGCioH8nkHRe0c5KxCMJ1PxfaNJJyvF1yxdG+wMm35nTeXBeui7/8AcCIAACIAACIDAmgHNK46cWr48qxvDL3KLqmgEGJooegCggAZpRc+qlC5XSuMi9EmAMv8wtqq4ZYGCi6AGIAhKgGTWnXrpQKY2L3CsBxvDL3KLqmgEGJooegCggAZpRc+qlC5XSuMi9EmAMv8wtqq4ZYGCi6AGIAhKgGTWnXrpQKY2L3CsBxvDL3KLqmgEGJooegCggAZpRc+qlC5XSuMi9EmAMv8wtqq4ZYGCi6AGIAhKgGTWnXrpQKY2L3CsBxvDL3KLqmgEGJooegCggAZpRc+qlC5XSuMi9EmAMv8wtqq4ZYGCi6AGIAhKgGTWnXrpQKY2L3CsBxvDL3KLqmgEGJooegCggAZpRc+qlC5XSuMi9EmAMv8wtqq4ZYGCi6AGIAhKgGTWnXrpQKY2L3CsBxvDL3KLqmgEGJooegCggAZpRc+qlC5XSuMi9EmAMv8wtqq4ZYGCi6AGIAhKgGTWnXrpQKY2L3CsBxvDL3KLqmgEGJooegCggAZpRc+qlC5XSuMi9EmAMv8wtqq4ZYGCi6AGIAhKgGTWnXrpQKY2L3CsBxvDL3KLqmgEGJooegCggAZpRc+qlC5XSuMi9EmAMv8wtqq4ZYGCi6AGIAhKgGTWnXrpQKY2L3CsBxvDL3KLqmgEGJooegCggAZpRc+qlC5XSuMi9EmAMv8wtqq4ZYGCi6AGIAhKgGTWnXrou//AHAiAAAiAAAiAwJoBzSuPHQa+PKsbwy9yi6poBBiaKHoAoIAGaUXPqpQuV0rjIvRJgDL/MLaquGWBgougBiAISoBk1p166UCmNi9wrAcbwy9yi6poBBiaKHoAoIAGaUXPqpQuV0rjIvRJgDL/MLaquGWBgougBiAISoBk1p166UCmNi9wrAcbwy9yi6poBBiaKHoAoIAGaUXPqpQuV0rjIvRJgDL/MLaquGWBgougBiAISoBk1p166UCmNi9wrAcbwy9yi6poBBiaKHoAoIAGaUXPqpQuV0rjIvRJgDL/MLaquGWBgougBiAISoBk1p166UCmNi9wrAcbwy9yi6poBBiaKHoAoIAGaUXPqpQuV0rjIvRJgDL/MLaquGWBgougBiAISoBk1p166UCmNi9wrAcbwy9yi6poBBiaKHoAoIAGaUXPqpQuV0rjIvRJgDL/MLaquGWBgougBiAISoBk1p166UCmNi9wrAcbwy9yi6poBBiaKHoAoIAGaUXPqpes/2btYhhFyOVEAAAAASUVORK5CYII=;" parent="1" vertex="1">
          <mxGeometry x="219.5" y="390" width="611" height="181" as="geometry" />
        </mxCell>
        <mxCell id="r-2nnv1M9J5xj9qOr7iy-62" value="" style="shape=crossbar;whiteSpace=wrap;html=1;rounded=1;" parent="1" vertex="1">
          <mxGeometry x="831" y="900" width="120" height="20" as="geometry" />
        </mxCell>
        <mxCell id="r-2nnv1M9J5xj9qOr7iy-63" value="10:06AM" style="text;html=1;align=center;verticalAlign=middle;resizable=0;points=[];autosize=1;strokeColor=none;fillColor=none;" parent="1" vertex="1">
          <mxGeometry x="920" y="870" width="70" height="30" as="geometry" />
        </mxCell>
        <mxCell id="r-2nnv1M9J5xj9qOr7iy-64" value="4 customer in queue during 10:00AM-10:05AM and the average queue time is&lt;div&gt;0:02:22&lt;/div&gt;&lt;div&gt;&lt;br&gt;(Sum every in queue customer their queue time)/total customer number=this time average queue time&lt;/div&gt;" style="shape=note;whiteSpace=wrap;html=1;backgroundOutline=1;fontColor=#000000;darkOpacity=0.05;fillColor=#FFF9B2;strokeColor=none;fillStyle=solid;direction=west;gradientDirection=north;gradientColor=#FFF2A1;shadow=1;size=20;pointerEvents=1;" parent="1" vertex="1">
          <mxGeometry x="200" y="700" width="610" height="120" as="geometry" />
        </mxCell>
        <mxCell id="r-2nnv1M9J5xj9qOr7iy-65" value="" style="shape=image;verticalLabelPosition=bottom;labelBackgroundColor=default;verticalAlign=top;aspect=fixed;imageAspect=0;image=data:image/png,iVBORw0KGgoAAAANSUhEUgAAAnQAAAC7CAIAAABjKpTQAAAgAElEQVR4Ae1dbZrzKgiddXVBXU9X0830z7uTuY8aEI7ampSaDpf5MfUDgXMwITGp/fld+/fv37+1Br/Lmlf4XnG9M3uCE2AvCAFCHFS9xtQE18/iAJs4vdhnQ3Ne4XvF9U7ogxNgLwgBQhxUvcbUBFck16Uz3CRmSz2eM+YV1xz6vlRwArwEIUCIg6rXmJrgiuS6dIabxGypx3PGvOKaQ9+XCk6AlyAECHFQ9RpTE1yRXJfOcJOYLfV4zphXXHPo+1LBCfAShAAhDqpeY2qCK5Lr0hluErOlHs8Z84prDn1fKjgBXoIQIMRB1WtMTXBFcl06w01ittTjOWNecc2h70sFJ8BLEAKEOKh6jakJrkiuS2e4ScyWejxnzCuuOfR9qeAEeAlCgBAHVa8xNcEVyXXpDDeJ2VKP54x5xTWHvi8VnAAvQQgQ4qDqNaYmuCK5Lp3hJjFb6vGcMa+45tD3pYIT4CUIAUIcVL3G1ARXJNelM9wkZks9njPmFdcc+r5UcAK8BCFAiIOq15ia4IrkunSGm8RsqcdzxrzimkPflwpOgJcgBAhxUPUaUxNckVyXznCTmC31eM6YV1xz6PtSwQnwEoQAIQ6qXmNqgiuS69IZbhKzpR7PGfOKaw59Xyo4AV6CECDEQdVrTE1w/fyLv2AgGAgGgoFgIBgwZSDuXJdePppcEC31eM6YV1xz6PtSwQnwEoQAIQ6qXmNqgiuS69IZbhKzpR7PGfOKaw59Xyo4AV6CECDEQdVrTE1wRXJdOsNNYrbU4zljXnHNoe9LBSfASxAChDioeo2pCa5IrktnuEnMlno8Z8wrrjn0fangBHgJQoAQB1WvMTXBFcl16Qw3idlSj+eMecU1h74vFZwAL0EIEOKg6jWmJrgiuS6d4TJmj9vlcnsU8/frzw9X2KP79ed655ouPG7Xyw/9Xa6kSAstq0lc2egn3PuEzg8ytIST9/1/Nsne1y41NITIzij/SQa8xtQEVyTXpXNaxgyS6+VSc+3m0/C8V3LxfcvMv4/77fIzzsMLEEpcv79H3btf2wsMcv6oThq//tOGk0/4/YznT9jbdGpCPmgoVC9jwGtMTXBFcl02D5MhGTNIrtf7/QrpdZBc79fOXe7jdjkxvUpch92ThEBUDusEPSurJpx8wuEnPH/CHOuUhHBjFP40A15jaoIrkuvSuS1jJs9xWxqF9NpPrv3WfL9YFpG1gDTz+7jzYvLlSne+e+U7jAlcWluV5XYu5D5yL92Z0l+zFq6HTOssBj4EuXoxKL3PySf8b3hmbkskaO29PGng+XKRMeHWn586iwYsiGZBiGiN4l9mwGtMTXBFcl06tWXMKK0kB/gMd7+K0xi3Sh/lMNn+yx16GDcnK5fLbUupaSl5M7VXXlktlYpLmNNy3DE0xxJ64G9FNuwY6vwcZPSlqZtw8gn/Nc9MXWq+XLdLrrwQcrttz/JzNqX0OnCpwd80VEKarmj4owx4jakJrkiuS2e1jJk8x/EZTuRZVaxeymG19VekIKFMNqfcqt57Ijn6LNqq/pG8sloqFVcdDmLcMTI3kUNBZR0x0jmCsFceDc/ULTj5iP8ciYyCqUj5VEwQvRJfx4xcek1JJeS1bEj8DQa8xtQEVyTXpZNYxqyeryCN8umOC9JHOUy2v8w06eSJf/lkqs2w/qG8sloqFRcPRynuGJgTVwfDocOOgc4hhL3yaHimbsDJZ/znSGQUTIVurospWYo7hy69pqQS8lo2JP4GA15jaoIrkuvSSSxjxucruSycvUk9aRGOz3vKx36rkNYCbIYLSlvXeL7BHcrjeP2ilrZeZbmdC7lPWBHFOiyX9JDaye1c0DqHGvfKV5PzJRFrba6q4HYurPBfs8KmdTNMPu7kQkUxWxKEzA4JuS9nwGtMTXBFcl06e2XM5GmKz3CbN6kvvT7cfQFYL9jVESQsFeecuy32DdTVW96sqmofyXcYk7iqAiGYbni2h3Yj98APMViCEM0TOkcQRj6M5IXV6aIFJyN/3vK/GVwCo5tHyRXap9nQV2B7hoXsFzMgJ/kXu7nbNRNckVx38/7OABkzeTJrT6KpN71g0t1EIn/pk9/2bb7nmtJb6X3cb7crP2pNw3hUekll075XvmVA4sqpkBxIovg13JE5kSxbC18HuXURWkw4+UTINM889eR8HK9nlOj2ZhHAb6uakLY/Wv4eA15jaoIrkuvSCS1jJk9mfIYT3qRzIN3tieatSF+ZyE9RL1d6Cbj08nclUvqUb6BwR/oSRX27iZsn5Rt3JK7cmTTSI950iUD7XXDn5rdyLyP+6e1VVYbBplRK6V4Ie+UbyC8bWk6+xX/FM089OR+fJdd0tSS+0FVn0StGGkJeDYj+r2fAa0xNcEVyXTp/TWImPS53ISp1ye5VZXNcTxz/EshPPCxdI07+iv8vAe4VGBGyV0/Ifw8DXmNqgiuS69KJahIz7THfRvRXkLXwp2ofwPXE1a+A/MS/0jXm5G/4/xLgXoExIXs1hfy3MOA1pia4fv7FXzAQDAQDwUAwEAyYMhB3rkuvAU0uiJZ6PGfMK6459H2p4AR4CUKAEAdVrzE1wRXJdekMN4nZUo/njHnFNYe+LxWcAC9BCBDioOo1pia4IrkuneEmMVvq8Zwxr7jm0PelghPgJQgBQhxUvcbUBFck16Uz3CRmSz2eM+YV1xz6vlRwArwEIUCIg6rXmJrgiuS6dIabxGypx3PGvOKaQ9+XCk6AlyAECHFQ9RpTE1xnJ9fHvX6zvtls4E9Nvvz9ildfhzkas65y/kaH2hBCkDYSGLWLoWWjAA2H9h6g3f9F71Fc0uLesi0neSepK+/RiM6MsQ/JPIMTdFtu+CB3DRFyQ/+3sSLKYlT+uSXaSkJqHhP1+x2EaBBRe48BrzE1wXVucs172vHmQo+y19vOaMsNiHYONRNPJ6jL7dbfClhaORKzgXKxF4H4bVZhbCQwaq9DxxZHZ9ojuKq9/aWxh7S/4z5O8rXEswg+brRXpHb2CZmrOdGOldoT914IDBgmI2k7J9p3Sx23I6Jib2GiztXnN0zyTxBqguvM5NrZ4T0fmrv2G4JN2z5B9Eudj3u+QOCN5MYDDsRsoByMQbXZvq7utw6SUE2uDyxWFS2+A7haJfMtAw8BC1SfcDKEzC61unIXNKvqYk7YVVFQ/uRdgeHqaCgwYJh0w1EnqqCRBqTPLyBEuhNlAwa8xtQE14nJ9clhqLvqoZsup8uiZLlsTre69MenDbnrLl9d06+FUmdZyWJ96raEW9MGvLSBbXEi2xe/KK2mp/ZadVHleMxAeeVkUw397U/MbAIvB5KrbS59skZwHBebO1AAzC+hvRQAhcKlPvanCs/hRPg8nAMs89T/JDUmhHWkgtDTJypLn0+IcjoqBgx4jakJrvOSqzggmyDrY5ol661uyn8lm3JnUZLWwS7dheYkeLluyTIvl91u2971OZtScs4rvFtKFWuLanjjcG7QXndljscMlEM1n98yAuqgT3ZjW68btbfn0UYycc5PyNXlyEk3JeAhVOc5YY5QQ633sdf+TYVcFD0ea/bnzcLQPeqgT7Yj/U+NKID1PDAdGnT0pJ+J+K5Jwtii8AEGzp/kHwBltcry15IrH8TEqU6u7cHPCbmkXV5y5vasqGrBK2/SCMPJvPwkUdkG5eNzEZRDtSYSMjgSGLXTuPqJkpkBupMHOo7jqvb2l8BDqM5zwpYbDdQzwN7Iy+R0Difkcfp86t4xAak+3bCmdSN8n4mXe75ikiiPo2LMwPmT3BjQps4E159KruVovlzlD6zVtKiXp5hzOsMoQTzxcOd2vqC15vyZl4FZghU3BbLUdNSG4zED5VCdTyQvB7KzjST35IIi5DgurXRfDTyE6jwnbLXRwD26QNgb+f9Xct1IEes7mqYcgfoQ5ZxJgi5F3ZIBrzE1wXVeck3X1fXA0wHXJy06lZFM/voOrUSpTlXZxEkX9FFzkeJOLpAx+hx2kADm69ouSsdjpv2VT7mKerzjbvzdBEbtwsmtCBYbAWnxOK5G7Y4G8PAltJcCoHDsygyZ53AifX6J96XALCGNInLj/ElCnsTnJxg4f5J/ApXRy3cnJtdeds1X/g9IHd0sTIe9PqyptTLOg7UgLJnVzlZD0VUlqm4ojYYKseNzEZVDHartmiALcKG4BVXhK/bwY+4iowg5jksY3F1sPVQ/Lo/dzeVPI9A0kEsj7DBAVc/hhDzOn8qfBv6TSUJaQAE1w9Ej7lBHRKWRX0AIA4iCDQNeY2qC68zkmo/2/utHKSWWx3uP++12veZb3PyuRHlomr5aV2570zqueBBbHvPwK77im7MqGeCJRnSWIduz2eGLU72pOToTCdnjMWuUF+DZT/VCFlsbCYzaeeBWaCxmzgu1aSVQ0n4cF1rdU288fAnthUCjkL0ZYX+i8BxO2ONceOJeEXwhMCREHyXpXcFbOWRGREVy1ZFxUvuGSf4JKk1wnZtc83cq6ds16cUIyoplg6DytsQ9vYFYDl3+Jo54iSKdHrLgdnT/0rdt0qsW9cVhuBuGa2+RXOWmNtoMnT8wmORBdiP/E9leC++P2RPlOacW7PSekb5o6ArkL7IS5/zuiRj4zKJ4WZjozgD349K87Ks985CnSA/aCPtIocwtdVrJF3jkbBEWE561nIwY7M4BhavH2AQhVbE4SpIXI6K+hJARUdF+hIHvmORHPH8+xgTX2cn1OUR3vSYx+0JWvOJ6h+rgBNgLQoAQB1WvMTXBFcl16Qw3idlSj+eMecU1h74vFZwAL0EIEOKg6jWmJrh+/sVfMBAMBAPBQDAQDJgyEHeuSy8fTS6Ilno8Z8wrrjn0fangBHgJQoAQB1WvMTXBFcl16Qw3idlSj+eMecU1h74vFZwAL0EIEOKg6jWmJrgiuS6d4SYxW+rxnDGvuObQ96WCE+AlCAFCHFS9xtQEVyTXpTPcJGZLPZ4z5hXXHPq+VHACvAQhQIiDqteYmuCK5Lp0hpvEbKnHc8a84ppD35cKToCXIAQIcVD1GlMTXGcn17xP8Lb7QtoueNsZ6a9Nu/qNer3DAOI4GrOsH7emeGl0JDBqR2/TThtiHybcWUD4cxRXY3FHgy0nZFhDplbYfaJuoPFlnAh/t+LLWI8EhntBoA1kbKQwNpFA5hzUzzjwV9Bmguvc5JqOy7qJUtrTUJzLJznk7Zsm5T8glrZ8264L8r6Ao62cju3ak05Wl9vtCtSk07owWn9RkwCOBEbtNI4/k125yaH8yRcWKgWTuQg6n1WtOSFbCJna02VGN8RfxAn7KgovYz0QSDuW0ZXu88MSGRsoTD6tniSChyh+iAGvMTXBdWZyzduQ6lvVbeP+HTNBbVy4Y5yhqNxMrt0MXRk6ELPHPW8KCUZg+0astm7weC4Ux6Bavc2hUL2qUgVT6QAurWBfzZqTzXoLmdwC6LVaSyTKn4s5YbuiAN5BdTxJ4KCCqjDQMAYmVPULCBGuR9GCAa8xNcF1YnJVB54OtO6qx7ZccUoryOlWl/54kbKuZ6XfceaF5qKFOsvqLetT933cKseX4Xkf1vGNaUahndfAjscMtFZONgPQj1sp897BLweyvgRTaX2yRnAcl+ZnX015J36ahbRA/5CTMWTSBJ9V8ddxIj19GeuXAkVbI0ZGCvrKxnOGz5kk5Gt8foIBrzE1wXVech0esc0FNUvWW92U/0o25c4yddKqVH+hOQlerrSQmtZUb7dreXiWsykl57wIu6Vk8TPQavizacqe9YSOx0ycwZJiqObMkhFQB32yF/kmY2JgHkA5Q2nJv0oktvxn1cvvXDfLyrsJaCBfSUv6epCbAcWwCPHXcSKCcnySSCU5YdaDQzyc6DDWELbNuqzw+ORX/kTlixjwGlMTXH8tudJRzvNLJ9fm4E4nmHKnWdIur0Jze9ZUtdAZgwyQRhhO3fBZ9UDHVj0eM/JjUwRVnSeSzEhg1C79rWdEKZ0ZoJUAoOM4Lml3b1l69wQyqwV5SVofMo8UBRXi7+NEeDqcAyzzhJD88zb596YGr+h1GXuq8JxJwmCj8AEGvMbUBNefSq7pIjot1YqfptMLUerEt00lOt6hj5qLFHdmC7TSvH3m5MwS4xk6IXI8Ztrf4+dN0CMTDCET1xeNNMnkcXV9/DiuqnB/CbyDagttLDAHGUC3DqsZcA4n0qkx3k3qpUCSE8s3QnmfsacKzydE+B9FEwa8xtQE13nJtd5TtlHWx6g6ZZWjPb3HWm5iVaeqbGpJF/RRc5HiTi6gU8OOTfBVfxE7HjPtr76mSLrFyS6bavzZBEbtGwxQBFZZCC0ex6VU7qyAdy+hjQQUd6BUuNQMF31bUWo6hxPpU+OwdC8JvhTYtD2XE4w9FTyfEElOlC0Y8BpTE1wnJtdeds1rTQ846PUK7jYl6IjWhzO11nnDg7Ug3PrVzlZD0VUlqm4uPe1kqbfeqkW/oA7VdpGUBbhQ/IJq4qX9257m6te+bpcvu3OFmGJ1yMkYsghdP8Ti6WuSVUImx6fw4EARggvVISENcwpXGTacJOKhLDyc+AJCDnAYQ54x4DWmJrjOTK752Ou/fpRSYnm897jfbtdrPo3nl0fKQ9P03btyak/ruOJBbH4Ilr+7kqaE/IoenCD0iUZ0li/bbs9mhy9OyQknBsvmXvl4zLS/5URev+d6VSQUy4WZDES9sTVq7/mrrGbOy6te+eu8gvbjuHpWZ9uUd2nQS2gvBSAfkCfDEH8dJ+Rx+XyJdyCgD4L0KmDdN0NbwAw9UJgGnTNJGnejwZABrzE1wXVucs0PdOj905+LeJaa00G6Ok53S7yalb8Jk6+Z61sW6WjOgnT407dt0uD64rC+q8BzqDp5su1kvWodnWDIgexF+Tc8Fe2PWaudc1r1U3zjSCacrkC55iic0RVMOtrkQD76oLFSW4nJsvtxsYkDhU9wwm5IyFRuDW6Xdjmh0wQ+lRP2HwrdOUC4kmxXQDaLg2BukvBRKqZlsrR2kgAPUf0IA15jaoLr7OT6kYh/r1KTmH0hPK+43qE6OAH2ghAgxEHVa0xNcEVyXTrDTWK21OM5Y15xzaHvSwUnwEsQAoQ4qHqNqQmun3/xFwwEA8FAMBAMBAOmDMSd69LLR5MLoqUezxnzimsOfV8qOAFeghAgxEHVa0xNcEVyXTrDTWK21OM5Y15xzaHvSwUnwEsQAoQ4qHqNqQmuSK5LZ7hJzJZ6PGfMK6459H2p4AR4CUKAEAdVrzE1wRXJdekMN4nZUo/njHnFNYe+LxWcAC9BCBDioOo1pia4IrkuneEmMVvq8Zwxr7jm0PelghPgJQgBQhxUvcbUBNfZyfVxv9F38H/SdsH8qzV/a+INd1cAGEdjlr/pz7tHbErl1/9prwtl74lAVyEPHg0cwjyKiy0eKHQhjDxn/SOBITQaORwo9kxQUTiDE3K2fo7cZoknArkLZ902EPfVqGL322Xb1oV3YCljvoMQBh4FAwa8xtQE17nJNe2yVjdRkpsVzsedt2+aH2IsmbZ3osuCFxiOxCyd4i6321Xu8ohb/WUPAFY6/W1u6R82GSjk4XXvyfyLKLQZ0TOYR3CxvQOFAYQhZDIxEHgGrQwdcJK2LKLY5y0hxd5cqzkhjPJzgLeKDAUGDPPI+otz3JQKWd92jZHKgo/YoUkx5aPyDZP8E0ya4DozueZ9WfWt6rZx/w661MaFO8bZiYIHUNV2DsTscc9bJcsd65JOqEP1mcBAITsKqqgKuHT1AC62d6AwgECubhqhOuZEY8GNMpM2UMVVLhSTqrqYkx6Nyp8GxRNc6aoqrSKBAmGj3/OUyS8gRACIogUDXmNqguvE5No/PHPEdVc9YtPl9LZ7b74nk79nwutSdYEv70xM2btooc6yDyzr07/3wlb4roR+8CT3yKvxdoJWb9u+Ny7eNSVtAoD+1wI4oONtJxYspWGazEXWPVsACNqlNnW85qQYbvQ0/oBh7lft53DCvpTbSD1XlX8zAjigau8vGOH9rBp/PiHV/SjZMOA1pia4zkuuz05h6pis58R6q5uyYsmmoKYsRdGjW7lImwQvV1onTUumt9v2UCjnWErOeRF2UyCWU9Xw8cRMYqSpI3U8ZpqS9paCTmskR5/sBAlQAwpgfZNjomlc/kSYx3EptTsr4DJU8wVRjgV10CebQU5Sh4TWDCgj+5yk+zwZ+3M4YWydi4uEbR8hSECtJ6z8ugTDTuTJB8/1iI2N+2Vk3JTPn+SfodIE119Lrk3i0odzPfiJcz684QkQt2fBqgWvyEkjDCf1/Jn684/4yHML91LheMzIj00TVGsiIUv7BWik+Ky0UOMA5nFcpPjIJ2CE6l5OBtDQsZaTItG0n8OJdPdNQnrpmdTnw4FfNKgPV3M7PXPNC0s12Z5PCHkfn1YMeI2pCa4/lVzTlXda6hU/TVdva9N0aU5w4vwAffrEw53bGVb8fFx65erRV92ZoeJet9Nrtyys3S/Q1YXHfgH0lznBjmQtvRIq7JnMxY6d502AEap7k+tmC6EpF0ac9NrP4US6+z4hjQapXpQlfvlQ5ZbexaMHM+cTIjyOogkDXmNqguu85JpWNuuBpyOtj2l55Ca5/PUdOrerTlXZVJIu6KPmIsWdXNAOTSfXQYYnbcdjpv1tLyPwjrsBggKgkDzcPpvh0A+EHMfV6N3RABAanxHyS4Hn4Jvhz8XP4UTS1zi8mxBgWCrXZdS89arx5xOifY7a+wx4jakJrhOTay+75odCD0gd3SxMh60+gVBrnTU8WAvCQ8va2WoouqpE1V1KOGIs+c7vRaMVqENV3LFv7jYCTUPF1UWA8krIZC5WByZL6BLUoTrmBAUVtM2XXlvqGrW/E+tJ+K/FABhUx4Sw5nbE1qUfL49YoGe8ZdA5k4SxROEDDHiNqQmuM5NrftO//z3XlBLLE53H/Xa7XvMtbn6HoqwxpTeVym1vWscV65Plmc/ohSZeocIvGYhTZHpQRA+TfocvTsl5qkek96aEHSn4zgm3Oc0V4JkO9UIWG3wh0CikgYILasqfz2CazEVlbabSQHgBOadCCq4k7Rm07MiIk1F7GnQOJ5q3o4SQloZh6ihXxuU4SwvpdAwKQpr19W8ghP2PggkDXmNqguvc5Lot8W5POC/iWWo+9ZU3hO7pLcySrtTjnO1RTjp/ZEHKaPRtm/R6Ud2hAi+u9WlDnBOST/SFn5/yjZ00DZUEzsvuCBRK9f0xI3gbRz8p82+aq1XaxwDuRboCI4VESNvPq/dVnyAmO7MfV4+d2bbWxTc5GcSclzdag/wgvsallOqF1VpORtzVmFlOkmStHmf1KIFmusgtzn0HISOiov0IA15jaoLr7OR6JKB/eIxJzL4Qv1dc71AdnAB7QQgQ4qDqNaYmuCK5Lp3hJjFb6vGcMa+45tD3pYIT4CUIAUIcVL3G1ATXz7/4CwaCgWAgGAgGggFTBuLOdenlo8kF0VKP54x5xTWHvi8VnAAvQQgQ4qDqNaYmuCK5Lp3hJjFb6vGcMa+45tD3pYIT4CUIAUIcVL3G1ARXJNelM9wkZks9njPmFdcc+r5UcAK8BCFAiIOq15ia4IrkunSGm8RsqcdzxrzimkPflwpOgJcgBAhxUPUaUxNckVyXznCTmC31eM6YV1xz6PtSwQnwEoQAIQ6qXmNqguvs5Jr3Cd6+iJ+2C6ZNvv/ovCtb/YydPxqzvBUA75Sw6Zf7A9AOGsr0SGDw9f92rLQ42kghjzqKS5ncWbHkBMFJ4JtbI9JGJB/YMGQnAVPiQ/do9Ehg1E7j0meWQa5GRH0JIdL/KL/LwBkH/rs+z4w3wXVuck25qG6iJH99dYaAIsPbN80P+ZRk+ilY3giua+RIzNIZ7HK7XevWTFl1ygfbxUiz0dwzgbTVFF3EDBgfWNSIFO9HcGl1+2oDD49ykvbfwhyhHBqS9sTiak6Uw1vliXtFYiRQ9x/Nv4DEm3RVI/0QDIk6tD1ZtRal72TgGyb5J5gxwXVmcuX9gSs728b9teFl6em2hC9HWwpk32kTwYHiAzF73G/pfh4VQx2qsA+iqAJfUM1uDywqSLBx+wFcSt3OysBDIAGqgoTNXBWopa4nwFKtwjhVXcxJz3HlTzuHmhaW50LRCtXU2A9BZSYP1NUvIKRHUrS9wYDXmJrgOjG5do5YirLuqodoulretnDNN1/pzpf++M6jLkul337lheaihTrLdqisT923cKscX4Zn+3X7WPI3fZY7Oe257M/l4zEDxZWTzQb0t3sho0AZ1+ipLvcH5P7mRu84rmpvfwk8bLBA/xNO1G34S0fYEBdoiLR4DifkSfp86t6UwKZNwpIGmuysO8GB8wkB96L6NgNeY2qC67zk2hz5ItD6YGbJequb8l/JptxZhqdlrv5CcxK8XGkhNa2p3m7X8qgyZ1NKznkRdkvJYr1VDReubkU6O2vPG7njMQPFUM0n0oyAOuiTXWgS4nb2rbhh3bnRwKqYfG45jotVHCiAh1Ddw0n+wSVx4bY502hM7WkmbKQ1/ZLkcziRNA7dow765EHSf25M140jwI2GOkoSlVvPJ0Q4F0UTBrzG1ATXX0uulAp4Zujk2h7rnJBL2uUXprg9a6paKEuSAdIIw6m7fNZzEonrfq4djxkohmpNJGTquUBCk341aLu6oEHqs9FAvUjRaY/TwEOo7uAkB5cWOYaRbkl7avF4rInodz+fupeUvxTo3f4qrxoNqbclKo85nxDlelQMGPAaUxNcfyq5lqP2chU/TZcvj/lV2Zoj67yhwx/6qLkIcud2XqC15vyZl4FZomrmksg2Wi1LUOF4zEAxVHckEnIlfYo7c9lcyo2JTUSg5UHHcbGKAwXwEKoHOXmZTwRpTy2ew4mk8al7SfClwLNZny01GoR9QVRuPZ8Q4VwUTRjwGlMTXOcl13Rk959e4hYag6IAABNNSURBVEGPR3j++g4tzalOVdkmDx3+0EfNRYo7uYBTb9hRf202DdFqUckb30YAxY07mPJeCmy+NXLsM1ikdjSU203mIlmY/gQPGyjo6ksBsowDqZ0+SRF9UruaC+dwwq70LhIQ11P/9XWr1CvKEALRk4vKwPmEoHtRf5cBrzE1wXVicu1l17y++oDDupuF6ahWh28nt/FgLQiStZP04qyrEtAjX6riG95m9XobdDxm6BfUodqmeRKgT0IxxAUMkTyOL+3HcZHeI5/oC9ShOuZEPFTMbjScoCYWgA5VPYcTxaPyp3flNxZgiEphUxkraJn8AkIa/6PhPQa8xtQE15nJNR/t/dePUkosz8Ae99vtes23uPmtk/LQNH1Bs9z2pnVckcpSdfxCE68f44lGnErKPhDbs9nhi1OjKQknGxQ7HrNGcQGe/VQvZLHJgYDGl97yEqzw4DYTlS5BlJQ9jktq2Vs246Rc55W32NJippxR2akhaQOS06BzONEcPnGvCA4EBmHWylMNQzAk6ksIaRFEyzsMfMMkf8f/0VgTXOcm1/zUj17STK/X1C/O0Jdu0nuKvJpFjfJVnHR6SH+cI+jbNqmt5lm4G4azgjqZ5FxVbkLrGz9KYhSS9mQDkvtjRvD4prie+Kuf4htH8mzXFdj21UF8lZAnFtvHmBu+/biAmF3VJx52IU9w8ltnTY155WREWn5uTRNYRCHBWcvJiMBDhLQEb4cXM9lK0BVuNYjvy30HISOiov0IA15jaoLr7OR6JKB/eIxJzL4Qv1dc71AdnAB7QQgQ4qDqNaYmuCK5Lp3hJjFb6vGcMa+45tD3pYIT4CUIAUIcVL3G1ATXz7/4CwaCgWAgGAgGggFTBuLOdenlo8kF0VKP54x5xTWHvi8VnAAvQQgQ4qDqNaYmuCK5Lp3hJjFb6vGcMa+45tD3pYIT4CUIAUIcVL3G1ARXJNelM9wkZks9njPmFdcc+r5UcAK8BCFAiIOq15ia4IrkunSGm8RsqcdzxrzimkPflwpOgJcgBAhxUPUaUxNckVyXznCTmC31eM6YV1xz6PtSwQnwEoQAIQ6qXmNqgiuS69IZbhKzpR7PGfOKaw59Xyo4AV6CECDEQdVrTE1wRXJdOsNNYrbU4zljXnHNoe9LBSfASxAChDioeo2pCa5IrktnuEnMlno8Z8wrrjn0fangBHgJQoAQB1WvMTXBFcl16Qw3idlSj+eMecU1h74vFZwAL0EIEOKg6jWmJrgiuS6d4SYxW+rxnDGvuObQ96WCE+AlCAFCHFS9xtQEVyTXpTPcJGZLPZ4z5hXXHPq+VHACvAQhQIiDqteYmuCK5Lp0hpvEbKnHc8a84ppD35cKToCXIAQIcVD1GlMTXJFcl85wk5gt9XjOmFdcc+j7UsEJ8BKEACEOql5jaoIrkuvSGW4Ss6UezxnzimsOfV8qOAFeghAgxEHVa0xNcEVyXTrDTWK21OM5Y15xzaHvSwUnwEsQAoQ4qHqNqQmuSK5LZ7hJzJZ6PGfMK6459H2p4AR4CUKAEAdVrzE1wRXJdekMN4nZUo/njHnFNYe+LxWcAC9BCBDioOo1pia4IrkuneEmMVvq8Zwxr7jm0PelghPgJQgBQhxUvcbUBNfPv/gLBoKBYCAYCAaCAVMG4s516eWjyQXRUo/njHnFNYe+LxWcAC9BCBDioOo1pia4IrkuneEmMVvq8Zwxr7jm0PelghPgJQgBQhxUvcbUBFck16Uz3CRmSz2eM+YV1xz6vlRwArwEIUCIg6rXmJrgiuS6dIabxGypx3PGvOKaQ9+XCk6AlyAECHFQ9RpTE1yRXJfOcJOYLfV4zphXXHPo+1LBCfAShAAhDqpeY2qCK5Lr0hluErOlHs8Z84prDn1fKjgBXoiQx+3y0/m73kH+UPV+/Rkpetyu1fDlenscMvDeoCfYn3j+ns1PjqaYmth43ClAg+iMBO63S4nsYNxvb2AnFBeeEya4IrmaTItZJSYxmzW2UM4rrncoDE6AvZaQffnkfq0nP1BdqyOV9+vPz+V2p4T6uKcMP0rDVd3nSiNHP2fxE5rbmB62kpLdtQQoRefSBGcgkJu3rJjK7SS5X38uQnNHIjmtppcJrkiuhyfDkYEmMTti+MNjvOJ6h7bgBNhrCdmVYB63S3veBBPpFNlLmen0ynclNKacrKm2+rPv6Gov3rXXxvSoRuADqjn5qciSAEwLqCZvSHLzDKrcqrK5Ca5Irkcnw6FxJjE7ZPmzg7zieoe14ATYawnpnufk6i3dcKQTJP9ttzR1qe9HrAZ2VXYb5WlXC6gTtDJDd7575YGJVNUqZEMxTzQUbOyFSgHc+sO3Zh1Ln2xqY3rQmuK8x89I4HFTlLS8okMN8b+/v6jk1wRXJFfk/qN1k5h91MNjyr3iOsZGGRWcAHstIe15rqzrUQ57pJxKy4P67Jq6tqW+37zGu4m1KvOps71vTc6xSj2Km/NaIS8mi8XKvfLARKpqFbIhmb9caR0zLZbebtsT4pxNiZD79dLzrWPrc01tTA/aauigfEcd9Mn6NwERrNzFixTNgDLyftXJOLW2bSa4IrlysFYUTGK2wtGdNrzi2kmDEg9OFB2/nbuB5vzXNKQctCVGPItK7bWv1SByqBySyjxMj+Jm/RxOJMC98mhYqOIu1gkPDisDyuWhb6xwRcFskjN68pqSK9WHApKufDVGE4ZGis8aWdHYMPnbm6tywGQ5kuskUTZiZnPRxh0zLV5xvUNQcALstYTgCbN37mMZ7Ex3cfXtXzqjsrgwjiO5izv0KG5O5238y6l+rzxbrAWtQmZbNl+EtSB3Dn2rJhaU2pgeNKpRdlZqnwnwW8bpAUG6n6f31pQzTJ1qzfetzQATXJFcgenPVk1i9lkXD2n3iusQGdug4ATYawnBE2bv9McyujMvGN8e21m09rG4NN5tlPlMC7A2LkhlqbxXHsc3KmQDWDWw1TFv1NTG9KBiAN2mvJcCm2FNF3vTDOce9ZYwtZrgiuRKdC75NInZEk/3GfGKax8LWjo40XyYLgvDubIunfbPrbVf+JTu/ejlKPUmcpXuaxPryVnda3lhlYqNam5osdFTVrmSDQme1C7+tJvkDL8ggKq8+BgJ5HZcTabGwd0sXicV3bEsTDz8pU+7ufhdqL3ieofl4ATYawlpz6DlAdrohSbKhTm7ifeZ0t4D29mzVVm8yN9zpTegfss7UFVdfrRbeh/32+3K36gtb1TR/XF98SXl0z3yQEWbK8RZfjK5Jp+Zg7xNgsjBrb3PtLQxPWynXOtkqtV7W6xwICDoEq+c8Si8EhIdqShGyx4TXHHnKin9eNkkZh/3cr8Br7j2M1FHBCeVi1xqCelmQvoOys/PT30bNilIJ9f0V9JoFbtc72nTgfLcrKuyOFJHJCXXuqNEVk7P7dK7pHKlUH3dpT6b4+ZJ+eKC+N84yg1wvuf2PFh1shMZT/dBo7D4iWIb0zesVDj8FSxxzZFmAAWJrmyKsRpYMY7v7GnaiIfn4ja2e6cbd65vRPG0oaZz8TQUrWGvuFqk8y3BCXD1JYSIGyBwMKq7GfiSmO72+9UAE1xx5/qKZtN+k5iZemSjzCuud9gJToC9ryGEb4BOWEcFTv569WtiakykCa6ff/EXDAQDwUAwEAwEA6YMxJ2r8SXPc3UmF0TPTZzS6xXXO2QGJ8BeEAKEOKh6jakJrkiuS2e4ScyWejxnzCuuOfR9qeAEeAlCgBAHVa8xNcEVyXXpDDeJ2VKP54x5xTWHvi8VnAAvQQgQ4qDqNaYmuCK5Lp3hJjFb6vGcMa+45tD3pYIT4CUIAUIcVL3G1ARXJNelM9wkZks9njPmFdcc+r5UcAK8BCFAiIOq15ia4IrkunSGm8RsqcdzxrzimkPflwpOgJceIXnjpLo1A4z4K9W6i0HZnuKM7RxarvTuE22/RUsvpof18lek5A/0Sm0jgVE7jx0JjNo7W3WyrvlCJNd5rgwkTeeigT9WKrzieoef4ATY6xCSzv/X9MOsIPqXquX6gHZsbDZWXApFbi21xHAnpkftis09htsY0naPSqBuRVnIF/svFV9GAqP2+Mm5ozE8dZzhXDwVBxr3igtx7qkHJ8BWS0i5t1pxhwWu2FXTCbq58y55ws7IrCa1N+LsoLfk2pgeVQezAKrtZswswIViGaoHB5rgijvXo5Ph0DiTmB2y/NlBXnG9w1pwAuw1hNB5kD6zfJMgakNdxBN7y5buvOlsyXJKivNe2UOW9qa9XLlD7libdxzmbYrVZrbCooSlXBcd3M6FFpxylO5898pXm+kOmv7yUgCrKhTR2nXBzsbT3sj8x61ps2JyiXs7hSamHZmpphrlTZy93+ovBQbjGuuomARUuwmuSK7E7ZJPk5gt8XSfEa+49rGgpYMTzQc+xxK3d+q8xjuul+Hcl34bnTbbF8uC6aR7uXImeGT58tAzSdGSc0quVxJLpul+E39bhn8ZIP+kaM+igNWc8amPO9j93MPNQ+V75ckgqpd3bIqiTPvttl1d5GxK6XXAsDIBFbNJrnGXn2lQlwhDAe2R+uEiAiZFqoBszfEQ4ia4Irlqij9cM4nZh308ot4rriNc0JjghJjYPjUhIrfqnz7RNT6n4uNE6pCJEgzKHxRT5vIP7JRTKanhoXWdd2SRRaV+0ZiKnEW1fm5WP7yTBpAcfRZ9r+WV3SouVWa0dC1RTIlaHTOBV1lLFR3Tpnu+QeMWyZVUvBSQrNMg/KxgdU/TboIrkqtm+cM1k5h92Mcj6r3iOsIFjQlOiIntUxECpzN96qw1vs9IyRH/cooARWWVV8hueQTEyAI0yxP00KKA1Q7fOrmDDJV2bh4q3ysvnBEpPbeyKrZahLk9V7lz6JIyARUVU+jbVdVOHUmuDGRkdyTQazfBFcl1FIqPtJvE7COevafUK653WAlOgD1JyIszOZ1q6RPzhtAMp8a8ynt7bF+GqZ21lMeSYmiG5Cpu8IRFWSQ9si2VuZ0LWYLNcWE4cFJejdda2bRurr4dMaHsGd65go+JQc3+c4GmF/ysSwnQMRgo5yqMmK9Gcp3nykDSJGYGflir8IrrHZ6CE2BPEJJyq3jClQTrcuxWyz9aXqU4VYBWfXbUNaG07ZhYFq7WwWitare3dgFP263Sc3Bey1dP5IVBbmUT2odRcoV2pXhYETEdysx1sLdFHKryeqURAHytvZHAqN3ooiGSaxuKD7bYzcUPOnlAtVdcB6jgIcEJU1EKlZCaM4SIbkwn16u6ecE3j7bXXPUJsqQ1ep/pevmhF5e0mEgkWu0tGaVbJt3FK9TC51RMUuLV2vwWlcjKCVZ53epxv90qpJHyvfLSG5HUZTYaYk9jRefIJWkCyjWm0LG/KkKnXrNiTQMBAYBFVWEkMGpPg01wRXJVcfh0xSRmn3bygH6vuA5QwUOCE6aiFJgQnUZZSp/scs4SX5hJeYC+SZOyGXXpUSlZpJSa/i7X+52/VwNi8sZIjXgowa5FdpgLVUPZoUl9iYV1pKsBudjJHRKOQDkpz16UTFmgJ3YYo4Ik2vNI1TlwSZrQZY6pbj5Wq9bFxQqjUBOgCqSUC3/l4ogGjgRG7dl3E1yRXI/Ng4OjTGJ20PYnh3nF9Q5nwQmw9wcIkV/eAe8nquLWakLahcgfiOkhnk1wRXI9xP3RQSYxO2r8g+O84nqHsuAE2PtOQtLtUr33qXfE4Pxcle+94IHy3Og/KPWdMX2fSBNcP//iLxgIBoKBYCAYCAZMGYg71/evcnZoMLkg2mFvlahXXO/wF5wAe0EIEOKg6jWmJrgiuS6d4SYxW+rxnDGvuObQ96WCE+AlCAFCHFS9xtQEVyTXpTPcJGZLPZ4z5hXXHPq+VHACvAQhQIiDqteYmuCK5Lp0hpvEbKnHc8a84ppD35cKToCXIAQIcVD1GlMTXJFcl85wk5gt9XjOmFdcc+j7UsEJ8BKEACEOql5jaoIrkuvSGW4Ss6UezxnzimsOfV8qOAFeghAgxEHVa0xNcEVyXTrDTWK21OM5Y15xzaHvSwUnwEsQAoQ4qHqNqQmuSK5LZ7hJzJZ6PGfMK6459H2p4AR4CUKAEAdVrzE1wRXJdekMN4nZUo/njHnFNYe+LxWcAC9BCBDioOo1pia4IrkuneEmMVvq8Zwxr7jm0PelghPgJQgBQhxUvcbUBFck16Uz3CRmSz2eM+YV1xz6vlRwArwEIUCIg6rXmJrgiuS6dIabxGypx3PGvOKaQ9+XCk6AlyAECHFQ9RpTE1yRXJfOcJOYLfV4zphXXHPo+1LBCfAShAAhDqpeY2qCK5Lr0hluErOlHs8Z84prDn1fKjgBXoIQIMRB1WtMTXBFcl06w01ittTjOWNecc2h70sFJ8BLEAKEOKh6jakJrkiuS2e4ScyWejxnzCuuOfR9qeAEeAlCgBAHVa8xNcEVyXXpDDeJ2VKP54x5xTWHvi8VnAAvQQgQ4qDqNaYmuCK5Lp3hJjFb6vGcMa+45tD3pYIT4CUIAUIcVL3G1ATXz7/4CwaCgWAgGAgGggFTBuLOdenlo8kF0VKP54x5xTWHvi8VnAAvQQgQ4qDqNaYmuP4DAv++qrUOVvwAAAAASUVORK5CYII=;" parent="1" vertex="1">
          <mxGeometry x="475" y="1130" width="628" height="187" as="geometry" />
        </mxCell>
        <mxCell id="-nAjfGVx_awmXdjeSDHz-2" value="" style="shape=crossbar;whiteSpace=wrap;html=1;rounded=1;" vertex="1" parent="1">
          <mxGeometry x="245" y="1680" width="120" height="20" as="geometry" />
        </mxCell>
        <mxCell id="-nAjfGVx_awmXdjeSDHz-3" value="10:00AM" style="text;html=1;align=center;verticalAlign=middle;resizable=0;points=[];autosize=1;strokeColor=none;fillColor=none;" vertex="1" parent="1">
          <mxGeometry x="205" y="1650" width="70" height="30" as="geometry" />
        </mxCell>
        <mxCell id="-nAjfGVx_awmXdjeSDHz-4" value="10:01AM" style="text;html=1;align=center;verticalAlign=middle;resizable=0;points=[];autosize=1;strokeColor=none;fillColor=none;" vertex="1" parent="1">
          <mxGeometry x="325" y="1650" width="70" height="30" as="geometry" />
        </mxCell>
        <mxCell id="-nAjfGVx_awmXdjeSDHz-5" value="Customer 1&lt;div&gt;IN Queue at 10:00:15&lt;/div&gt;" style="shape=umlActor;verticalLabelPosition=bottom;verticalAlign=top;html=1;outlineConnect=0;fillColor=#dae8fc;strokeColor=#6c8ebf;" vertex="1" parent="1">
          <mxGeometry x="255" y="1750" width="30" height="60" as="geometry" />
        </mxCell>
        <mxCell id="-nAjfGVx_awmXdjeSDHz-6" style="edgeStyle=orthogonalEdgeStyle;rounded=0;orthogonalLoop=1;jettySize=auto;html=1;entryX=0.167;entryY=0.7;entryDx=0;entryDy=0;entryPerimeter=0;" edge="1" parent="1" source="-nAjfGVx_awmXdjeSDHz-5" target="-nAjfGVx_awmXdjeSDHz-2">
          <mxGeometry relative="1" as="geometry" />
        </mxCell>
        <mxCell id="-nAjfGVx_awmXdjeSDHz-7" value="Customer 1&lt;div&gt;OUT Queue at 10:00:45&lt;/div&gt;" style="shape=umlActor;verticalLabelPosition=bottom;verticalAlign=top;html=1;outlineConnect=0;fillColor=#dae8fc;strokeColor=#6c8ebf;" vertex="1" parent="1">
          <mxGeometry x="390" y="1750" width="30" height="60" as="geometry" />
        </mxCell>
        <mxCell id="-nAjfGVx_awmXdjeSDHz-8" style="edgeStyle=orthogonalEdgeStyle;rounded=0;orthogonalLoop=1;jettySize=auto;html=1;entryX=0.917;entryY=1;entryDx=0;entryDy=0;entryPerimeter=0;" edge="1" parent="1">
          <mxGeometry relative="1" as="geometry">
            <mxPoint x="380" y="1770" as="sourcePoint" />
            <mxPoint x="345.03999999999996" y="1690" as="targetPoint" />
          </mxGeometry>
        </mxCell>
        <mxCell id="-nAjfGVx_awmXdjeSDHz-9" value="" style="shape=crossbar;whiteSpace=wrap;html=1;rounded=1;" vertex="1" parent="1">
          <mxGeometry x="365" y="1680" width="120" height="20" as="geometry" />
        </mxCell>
        <mxCell id="-nAjfGVx_awmXdjeSDHz-10" value="" style="shape=crossbar;whiteSpace=wrap;html=1;rounded=1;" vertex="1" parent="1">
          <mxGeometry x="485" y="1680" width="120" height="20" as="geometry" />
        </mxCell>
        <mxCell id="-nAjfGVx_awmXdjeSDHz-11" value="10:02AM" style="text;html=1;align=center;verticalAlign=middle;resizable=0;points=[];autosize=1;strokeColor=none;fillColor=none;" vertex="1" parent="1">
          <mxGeometry x="455" y="1650" width="70" height="30" as="geometry" />
        </mxCell>
        <mxCell id="-nAjfGVx_awmXdjeSDHz-12" value="10:03AM" style="text;html=1;align=center;verticalAlign=middle;resizable=0;points=[];autosize=1;strokeColor=none;fillColor=none;" vertex="1" parent="1">
          <mxGeometry x="575" y="1650" width="70" height="30" as="geometry" />
        </mxCell>
        <mxCell id="-nAjfGVx_awmXdjeSDHz-13" value="" style="shape=flexArrow;endArrow=classic;html=1;rounded=0;entryX=0;entryY=0.5;entryDx=0;entryDy=0;entryPerimeter=0;" edge="1" parent="1" target="-nAjfGVx_awmXdjeSDHz-9">
          <mxGeometry width="50" height="50" relative="1" as="geometry">
            <mxPoint x="355" y="1610" as="sourcePoint" />
            <mxPoint x="535" y="1750" as="targetPoint" />
          </mxGeometry>
        </mxCell>
        <mxCell id="-nAjfGVx_awmXdjeSDHz-15" value="Count how many customer in Queue at 10:01" style="text;html=1;align=center;verticalAlign=middle;whiteSpace=wrap;rounded=0;" vertex="1" parent="1">
          <mxGeometry x="320" y="1560" width="60" height="30" as="geometry" />
        </mxCell>
        <mxCell id="-nAjfGVx_awmXdjeSDHz-17" value="In this situation, Customer was in queue, we will count the average queue time, but when we count how many customer current in queue, there was no one.&lt;br&gt;The data will like:&lt;br&gt;10:01 -&amp;nbsp;&lt;span style=&quot;background-color: transparent; color: light-dark(rgb(0, 0, 0), rgb(237, 237, 237));&quot;&gt;Queue Length: 0 Avg Queue time: 30s&lt;/span&gt;" style="shape=note;whiteSpace=wrap;html=1;backgroundOutline=1;fontColor=#000000;darkOpacity=0.05;fillColor=#FFF9B2;strokeColor=none;fillStyle=solid;direction=west;gradientDirection=north;gradientColor=#FFF2A1;shadow=1;size=20;pointerEvents=1;" vertex="1" parent="1">
          <mxGeometry x="77.5" y="1370" width="335" height="160" as="geometry" />
        </mxCell>
        <mxCell id="-nAjfGVx_awmXdjeSDHz-18" value="Count how many customer in Queue at 10:00" style="text;html=1;align=center;verticalAlign=middle;whiteSpace=wrap;rounded=0;" vertex="1" parent="1">
          <mxGeometry x="200" y="1560" width="60" height="30" as="geometry" />
        </mxCell>
        <mxCell id="-nAjfGVx_awmXdjeSDHz-19" value="" style="shape=flexArrow;endArrow=classic;html=1;rounded=0;entryX=0;entryY=0.5;entryDx=0;entryDy=0;entryPerimeter=0;" edge="1" parent="1">
          <mxGeometry width="50" height="50" relative="1" as="geometry">
            <mxPoint x="235" y="1610" as="sourcePoint" />
            <mxPoint x="245" y="1690" as="targetPoint" />
          </mxGeometry>
        </mxCell>
      </root>
    </mxGraphModel>
  </diagram>
</mxfile>
